<svg width="14" height="14" viewBox="0 0 14 14" fill="none" xmlns="http://www.w3.org/2000/svg">
<path d="M0.75 3.15015V10.3501C0.75 11.1902 0.75 11.61 0.91349 11.9309C1.0573 12.2132 1.2866 12.4429 1.56885 12.5867C1.8894 12.75 2.30925 12.75 3.14768 12.75H10.3523C11.1908 12.75 11.61 12.75 11.9305 12.5867C12.2128 12.4429 12.4429 12.2132 12.5867 11.9309C12.75 11.6104 12.75 11.1911 12.75 10.3527V3.14768C12.75 2.30925 12.75 1.8894 12.5867 1.56885C12.4429 1.2866 12.2128 1.0573 11.9305 0.91349C11.6097 0.75 11.1902 0.75 10.3501 0.75H3.15015C2.31007 0.75 1.88972 0.75 1.56885 0.91349C1.2866 1.0573 1.0573 1.2866 0.91349 1.56885C0.75 1.88972 0.75 2.31007 0.75 3.15015Z" stroke="#2D2522" stroke-width="1.5" stroke-linecap="round" stroke-linejoin="round"/>
</svg>
