<svg width="44" height="44" viewBox="0 0 44 44" fill="none" xmlns="http://www.w3.org/2000/svg">
<g filter="url(#filter0_dd_1972_7937)">
<rect x="12" y="2" width="20" height="20" rx="10" fill="#E29578"/>
<path d="M20.5469 13.2429L21.0938 11.4786L19.6562 10.3333H21.4375L22 8.6L22.5625 10.3333H24.3438L22.8906 11.4786L23.4375 13.2429L22 12.144L20.5469 13.2429ZM18.25 19V14.2179C17.8542 13.7845 17.5469 13.2893 17.3281 12.7321C17.1094 12.175 17 11.5817 17 10.9524C17 9.56984 17.4844 8.39881 18.4531 7.43929C19.4219 6.47976 20.6042 6 22 6C23.3958 6 24.5781 6.47976 25.5469 7.43929C26.5156 8.39881 27 9.56984 27 10.9524C27 11.5817 26.8906 12.175 26.6719 12.7321C26.4531 13.2893 26.1458 13.7845 25.75 14.2179V19L22 17.7619L18.25 19ZM22 14.6667C23.0417 14.6667 23.9271 14.3056 24.6562 13.5833C25.3854 12.8611 25.75 11.9841 25.75 10.9524C25.75 9.92063 25.3854 9.04365 24.6562 8.32143C23.9271 7.59921 23.0417 7.2381 22 7.2381C20.9583 7.2381 20.0729 7.59921 19.3438 8.32143C18.6146 9.04365 18.25 9.92063 18.25 10.9524C18.25 11.9841 18.6146 12.8611 19.3438 13.5833C20.0729 14.3056 20.9583 14.6667 22 14.6667Z" fill="white"/>
</g>
<defs>
<filter id="filter0_dd_1972_7937" x="0" y="0" width="44" height="44" filterUnits="userSpaceOnUse" color-interpolation-filters="sRGB">
<feFlood flood-opacity="0" result="BackgroundImageFix"/>
<feColorMatrix in="SourceAlpha" type="matrix" values="0 0 0 0 0 0 0 0 0 0 0 0 0 0 0 0 0 0 127 0" result="hardAlpha"/>
<feMorphology radius="4" operator="erode" in="SourceAlpha" result="effect1_dropShadow_1972_7937"/>
<feOffset dy="4"/>
<feGaussianBlur stdDeviation="3"/>
<feComposite in2="hardAlpha" operator="out"/>
<feColorMatrix type="matrix" values="0 0 0 0 0.905882 0 0 0 0 0.670588 0 0 0 0 0.54902 0 0 0 1 0"/>
<feBlend mode="normal" in2="BackgroundImageFix" result="effect1_dropShadow_1972_7937"/>
<feColorMatrix in="SourceAlpha" type="matrix" values="0 0 0 0 0 0 0 0 0 0 0 0 0 0 0 0 0 0 127 0" result="hardAlpha"/>
<feMorphology radius="3" operator="erode" in="SourceAlpha" result="effect2_dropShadow_1972_7937"/>
<feOffset dy="10"/>
<feGaussianBlur stdDeviation="7.5"/>
<feComposite in2="hardAlpha" operator="out"/>
<feColorMatrix type="matrix" values="0 0 0 0 0.905882 0 0 0 0 0.670588 0 0 0 0 0.54902 0 0 0 1 0"/>
<feBlend mode="normal" in2="effect1_dropShadow_1972_7937" result="effect2_dropShadow_1972_7937"/>
<feBlend mode="normal" in="SourceGraphic" in2="effect2_dropShadow_1972_7937" result="shape"/>
</filter>
</defs>
</svg>
