<svg width="20" height="20" viewBox="0 0 20 20" fill="none" xmlns="http://www.w3.org/2000/svg">
<path d="M7.53571 2C7.53571 1.58579 7.19993 1.25 6.78571 1.25C6.3715 1.25 6.03571 1.58579 6.03571 2H6.78571H7.53571ZM6.03571 19C6.03571 19.4142 6.3715 19.75 6.78571 19.75C7.19993 19.75 7.53571 19.4142 7.53571 19H6.78571H6.03571ZM3.57143 6.39286C3.98564 6.39286 4.32143 6.05707 4.32143 5.64286C4.32143 5.22864 3.98564 4.89286 3.57143 4.89286V5.64286V6.39286ZM1 4.89286C0.585786 4.89286 0.25 5.22864 0.25 5.64286C0.25 6.05707 0.585786 6.39286 1 6.39286V5.64286V4.89286ZM3.57143 10.0357C3.98564 10.0357 4.32143 9.69993 4.32143 9.28571C4.32143 8.8715 3.98564 8.53571 3.57143 8.53571V9.28571V10.0357ZM1 8.53571C0.585786 8.53571 0.25 8.8715 0.25 9.28571C0.25 9.69993 0.585786 10.0357 1 10.0357V9.28571V8.53571ZM3.57143 13.6786C3.98564 13.6786 4.32143 13.3428 4.32143 12.9286C4.32143 12.5144 3.98564 12.1786 3.57143 12.1786V12.9286V13.6786ZM1 12.1786C0.585786 12.1786 0.25 12.5144 0.25 12.9286C0.25 13.3428 0.585786 13.6786 1 13.6786V12.9286V12.1786ZM15.4911 13.7001C15.4911 14.1144 15.8269 14.4501 16.2411 14.4501C16.6553 14.4501 16.9911 14.1144 16.9911 13.7001H16.2411H15.4911ZM8.92857 13.7001C8.92857 14.1144 9.26436 14.4501 9.67857 14.4501C10.0928 14.4501 10.4286 14.1144 10.4286 13.7001H9.67857H8.92857ZM6.78571 2H6.03571V19H6.78571H7.53571V2H6.78571ZM3.57143 5.64286V4.89286H1V5.64286V6.39286H3.57143V5.64286ZM3.57143 9.28571V8.53571H1V9.28571V10.0357H3.57143V9.28571ZM3.57143 12.9286V12.1786H1V12.9286V13.6786H3.57143V12.9286ZM4.85714 2V2.75H16.4286V2V1.25H4.85714V2ZM19 4.42857H18.25V16.5714H19H19.75V4.42857H19ZM16.4286 19V18.25H4.85714V19V19.75H16.4286V19ZM2.28571 16.5714H3.03571V4.42857H2.28571H1.53571V16.5714H2.28571ZM4.85714 19V18.25C3.81023 18.25 3.03571 17.4587 3.03571 16.5714H2.28571H1.53571C1.53571 18.3667 3.06374 19.75 4.85714 19.75V19ZM19 16.5714H18.25C18.25 17.4587 17.4755 18.25 16.4286 18.25V19V19.75C18.222 19.75 19.75 18.3667 19.75 16.5714H19ZM16.4286 2V2.75C17.4755 2.75 18.25 3.54133 18.25 4.42857H19H19.75C19.75 2.63328 18.222 1.25 16.4286 1.25V2ZM4.85714 2V1.25C3.06374 1.25 1.53571 2.63328 1.53571 4.42857H2.28571H3.03571C3.03571 3.54133 3.81023 2.75 4.85714 2.75V2ZM12.9598 8.64063V7.89063C12.2604 7.89063 11.7411 7.35107 11.7411 6.7433H10.9911H10.2411C10.2411 8.23126 11.4847 9.39063 12.9598 9.39063V8.64063ZM10.9911 6.7433H11.7411C11.7411 6.13554 12.2604 5.59598 12.9598 5.59598V4.84598V4.09598C11.4847 4.09598 10.2411 5.25535 10.2411 6.7433H10.9911ZM12.9598 4.84598V5.59598C13.6593 5.59598 14.1786 6.13554 14.1786 6.7433H14.9286H15.6786C15.6786 5.25535 14.435 4.09598 12.9598 4.09598V4.84598ZM14.9286 6.7433H14.1786C14.1786 7.35107 13.6593 7.89063 12.9598 7.89063V8.64063V9.39063C14.435 9.39063 15.6786 8.23126 15.6786 6.7433H14.9286ZM16.2411 13.7001H16.9911C16.9911 11.5136 15.1599 9.78795 12.9598 9.78795V10.5379V11.2879C14.3842 11.2879 15.4911 12.3938 15.4911 13.7001H16.2411ZM12.9598 10.5379V9.78795C10.7598 9.78795 8.92857 11.5136 8.92857 13.7001H9.67857H10.4286C10.4286 12.3938 11.5355 11.2879 12.9598 11.2879V10.5379Z" fill="#2D2522"/>
</svg>
