<svg width="30" height="30" viewBox="0 0 30 30" fill="none" xmlns="http://www.w3.org/2000/svg">
<path d="M13.5714 8C13.5714 7.58579 13.2356 7.25 12.8214 7.25C12.4072 7.25 12.0714 7.58579 12.0714 8H12.8214H13.5714ZM12.0714 23C12.0714 23.4142 12.4072 23.75 12.8214 23.75C13.2356 23.75 13.5714 23.4142 13.5714 23H12.8214H12.0714ZM10.1429 11.9643C10.5571 11.9643 10.8929 11.6285 10.8929 11.2143C10.8929 10.8001 10.5571 10.4643 10.1429 10.4643V11.2143V11.9643ZM8 10.4643C7.58579 10.4643 7.25 10.8001 7.25 11.2143C7.25 11.6285 7.58579 11.9643 8 11.9643V11.2143V10.4643ZM10.1429 15.1786C10.5571 15.1786 10.8929 14.8428 10.8929 14.4286C10.8929 14.0144 10.5571 13.6786 10.1429 13.6786V14.4286V15.1786ZM8 13.6786C7.58579 13.6786 7.25 14.0144 7.25 14.4286C7.25 14.8428 7.58579 15.1786 8 15.1786V14.4286V13.6786ZM10.1429 18.3929C10.5571 18.3929 10.8929 18.0571 10.8929 17.6429C10.8929 17.2286 10.5571 16.8929 10.1429 16.8929V17.6429V18.3929ZM8 16.8929C7.58579 16.8929 7.25 17.2286 7.25 17.6429C7.25 18.0571 7.58579 18.3929 8 18.3929V17.6429V16.8929ZM19.9509 18.3237C19.9509 18.7379 20.2867 19.0737 20.7009 19.0737C21.1151 19.0737 21.4509 18.7379 21.4509 18.3237H20.7009H19.9509ZM14.4821 18.3237C14.4821 18.7379 14.8179 19.0737 15.2321 19.0737C15.6464 19.0737 15.9821 18.7379 15.9821 18.3237H15.2321H14.4821ZM12.8214 8H12.0714V23H12.8214H13.5714V8H12.8214ZM10.1429 11.2143V10.4643H8V11.2143V11.9643H10.1429V11.2143ZM10.1429 14.4286V13.6786H8V14.4286V15.1786H10.1429V14.4286ZM10.1429 17.6429V16.8929H8V17.6429V18.3929H10.1429V17.6429ZM11.2143 8V8.75H20.8571V8V7.25H11.2143V8ZM23 10.1429H22.25V20.8571H23H23.75V10.1429H23ZM20.8571 23V22.25H11.2143V23V23.75H20.8571V23ZM9.07143 20.8571H9.82143V10.1429H9.07143H8.32143V20.8571H9.07143ZM11.2143 23V22.25C10.445 22.25 9.82143 21.6264 9.82143 20.8571H9.07143H8.32143C8.32143 22.4548 9.6166 23.75 11.2143 23.75V23ZM23 20.8571H22.25C22.25 21.6264 21.6264 22.25 20.8571 22.25V23V23.75C22.4548 23.75 23.75 22.4548 23.75 20.8571H23ZM20.8571 8V8.75C21.6264 8.75 22.25 9.3736 22.25 10.1429H23H23.75C23.75 8.54518 22.4548 7.25 20.8571 7.25V8ZM11.2143 8V7.25C9.6166 7.25 8.32143 8.54518 8.32143 10.1429H9.07143H9.82143C9.82143 9.3736 10.445 8.75 11.2143 8.75V8ZM17.9665 13.8594V13.1094C17.4889 13.1094 17.0759 12.71 17.0759 12.1853H16.3259H15.5759C15.5759 13.5097 16.632 14.6094 17.9665 14.6094V13.8594ZM16.3259 12.1853H17.0759C17.0759 11.6605 17.4889 11.2612 17.9665 11.2612V10.5112V9.76116C16.632 9.76116 15.5759 10.8608 15.5759 12.1853H16.3259ZM17.9665 10.5112V11.2612C18.4442 11.2612 18.8571 11.6605 18.8571 12.1853H19.6071H20.3571C20.3571 10.8608 19.301 9.76116 17.9665 9.76116V10.5112ZM19.6071 12.1853H18.8571C18.8571 12.71 18.4442 13.1094 17.9665 13.1094V13.8594V14.6094C19.301 14.6094 20.3571 13.5097 20.3571 12.1853H19.6071ZM20.7009 18.3237H21.4509C21.4509 16.3828 19.9051 14.7835 17.9665 14.7835V15.5335V16.2835C19.0482 16.2835 19.9509 17.1825 19.9509 18.3237H20.7009ZM17.9665 15.5335V14.7835C16.0279 14.7835 14.4821 16.3828 14.4821 18.3237H15.2321H15.9821C15.9821 17.1825 16.8848 16.2835 17.9665 16.2835V15.5335Z" fill="#2D2522"/>
</svg>
