<svg width="20" height="20" viewBox="0 0 20 20" fill="none" xmlns="http://www.w3.org/2000/svg">
<path d="M8 14H3V19M12 6H17V1M2.58301 7.0034C3.14369 5.61566 4.08244 4.41304 5.29255 3.53223C6.50266 2.65141 7.93686 2.12752 9.42975 2.02051C10.9227 1.9135 12.4147 2.2274 13.7381 2.92661C15.0615 3.62582 16.1612 4.68254 16.9141 5.97612M17.4176 12.9971C16.8569 14.3848 15.9181 15.5874 14.708 16.4682C13.4979 17.3491 12.0652 17.8723 10.5723 17.9793C9.07937 18.0863 7.58606 17.7725 6.2627 17.0732C4.93933 16.374 3.83882 15.3175 3.08594 14.0239" stroke="#2D2522" stroke-width="1.5" stroke-linecap="round" stroke-linejoin="round"/>
</svg>
