<svg width="22" height="22" viewBox="0 0 22 22" fill="none" xmlns="http://www.w3.org/2000/svg">
<path d="M13 17V18C13 19.6569 11.6569 21 10 21C8.34315 21 7 19.6569 7 18V17.0001M13 17L7 17.0001M13 17H17C17.5523 17 18 16.5523 18 16V15.4141C18 15.1489 17.8945 14.8946 17.707 14.707L17.1963 14.1963C17.0706 14.0706 17 13.9 17 13.7222V10C17 9.82357 16.9936 9.64855 16.9805 9.4761M7 17.0001L3 17.0001C2.44772 17.0001 2 16.5521 2 15.9998V15.4141C2 15.1489 2.10544 14.8949 2.29297 14.7073L2.80371 14.1958C2.92939 14.0701 3 13.9002 3 13.7224V9.99998C3 6.13401 6.134 3 10 3C10.7116 3 11.3984 3.10618 12.0454 3.30357L12.0468 3.304" stroke="#2D2522" stroke-width="1.5" stroke-linecap="round" stroke-linejoin="round"/>
<circle cx="17" cy="5" r="4" fill="#F67769" stroke="#FDF0EB" stroke-width="2"/>
</svg>
