<svg width="30" height="30" viewBox="0 0 30 30" fill="none" xmlns="http://www.w3.org/2000/svg">
<path d="M17.2501 18.8889V19.6667C17.2501 20.9553 16.2428 22 15.0001 22C13.7574 22 12.7501 20.9553 12.7501 19.6667V18.8889M17.2501 18.8889H12.7501M17.2501 18.8889H19.9431C20.23 18.8889 20.3741 18.8889 20.4903 18.8483C20.7122 18.7706 20.8858 18.5899 20.9607 18.3598C21 18.2389 21 18.0889 21 17.7891C21 17.6578 20.9999 17.5922 20.99 17.5297C20.9712 17.4115 20.927 17.2994 20.8596 17.2021C20.824 17.1506 20.7788 17.1037 20.6896 17.0112L20.3974 16.7082C20.3032 16.6105 20.2502 16.4779 20.2502 16.3396V13.4444C20.2502 10.4376 17.8997 7.99999 15.0001 8C12.1006 8.00001 9.75001 10.4376 9.75001 13.4444V16.3397C9.75001 16.4779 9.69695 16.6105 9.60269 16.7082L9.31055 17.0112C9.22107 17.104 9.17628 17.1506 9.14063 17.2021C9.07324 17.2994 9.02861 17.4115 9.0099 17.5297C9 17.5922 9 17.6579 9 17.7891C9 18.089 9 18.2389 9.03934 18.3598C9.11419 18.5899 9.2886 18.7706 9.51051 18.8483C9.62668 18.8889 9.77027 18.8889 10.0572 18.8889H12.7501" stroke="#2D2522" stroke-width="1.5" stroke-linecap="round" stroke-linejoin="round"/>
</svg>
