<svg width="20" height="20" viewBox="0 0 20 20" fill="none" xmlns="http://www.w3.org/2000/svg">
<path d="M7 15V16C7 17.6569 8.3431 19 10 19C11.6569 19 13 17.6569 13 16V15M7 15L13 15M7 15L3.00022 15.0002C2.48738 15.0002 2.06449 14.6141 2.00673 14.1168L2 13.9998V13.4141C2 13.1489 2.10544 12.8949 2.29297 12.7073L2.80371 12.1963C2.92939 12.0706 3 11.9003 3 11.7225V7.99986C3 6.15821 3.7112 4.48267 4.87393 3.23291M13 15L16.9999 15M3 1L19 17M16.9995 10.999L17.0004 8C17.0004 4.13402 13.8665 1 10.0005 1L9.75977 1.00406C8.95483 1.03125 8.18449 1.19404 7.4707 1.47081" stroke="#2D2522" stroke-width="1.5" stroke-linecap="round" stroke-linejoin="round"/>
</svg>
