<svg width="30" height="30" viewBox="0 0 30 30" fill="none" xmlns="http://www.w3.org/2000/svg">
<path d="M15.9375 20.8889V21.6667C15.9375 22.9553 14.8462 24 13.5 24C12.1538 24 11.0625 22.9553 11.0625 21.6667V20.889M15.9375 20.8889L11.0625 20.889M15.9375 20.8889H19.1875C19.6362 20.8889 20 20.5407 20 20.1111V19.6554C20 19.4491 19.9143 19.2514 19.762 19.1055L19.347 18.7082C19.2449 18.6105 19.1875 18.4778 19.1875 18.3395V15.4444C19.1875 15.3072 19.1823 15.1711 19.1716 15.037M11.0625 20.889L7.8125 20.889C7.36377 20.889 7 20.5405 7 20.111V19.6554C7 19.4491 7.08567 19.2516 7.23804 19.1057L7.65302 18.7079C7.75513 18.6101 7.8125 18.4779 7.8125 18.3397V15.4444C7.8125 12.4376 10.3589 10 13.5 10C14.0782 10 14.6362 10.0826 15.1619 10.2361L15.1631 10.2364" stroke="#2D2522" stroke-width="1.5" stroke-linecap="round" stroke-linejoin="round"/>
<circle cx="19" cy="11" r="3.25" fill="#F67769" stroke="white" stroke-width="1.5"/>
</svg>
