<svg width="20" height="20" viewBox="0 0 20 20" fill="none" xmlns="http://www.w3.org/2000/svg">
<path d="M13 15V16C13 17.6569 11.6569 19 10 19C8.34315 19 7 17.6569 7 16V15M13 15H7M13 15H16.5905C16.973 15 17.1652 15 17.3201 14.9478C17.616 14.848 17.8475 14.6156 17.9473 14.3198C17.9997 14.1643 17.9997 13.9715 17.9997 13.5859C17.9997 13.4172 17.9995 13.3329 17.9863 13.2524C17.9614 13.1004 17.9024 12.9563 17.8126 12.8312C17.7651 12.7651 17.7048 12.7048 17.5858 12.5858L17.1963 12.1963C17.0706 12.0706 17 11.9001 17 11.7224V8C17 4.134 13.866 0.999991 10 1C6.13401 1.00001 3 4.13401 3 8V11.7224C3 11.9002 2.92924 12.0706 2.80357 12.1963L2.41406 12.5858C2.29476 12.7051 2.23504 12.765 2.1875 12.8312C2.09766 12.9564 2.03815 13.1004 2.0132 13.2524C2 13.3329 2 13.4172 2 13.586C2 13.9715 2 14.1642 2.05245 14.3197C2.15225 14.6156 2.3848 14.848 2.68066 14.9478C2.83556 15 3.02701 15 3.40956 15H7" stroke="#2D2522" stroke-width="1.5" stroke-linecap="round" stroke-linejoin="round"/>
</svg>
