<svg width="20" height="20" viewBox="0 0 20 20" fill="none" xmlns="http://www.w3.org/2000/svg">
<g clip-path="url(#clip0_1972_7935)">
<path d="M2 6H18M2 6V14.8002C2 15.9203 2 16.4801 2.21799 16.9079C2.40973 17.2842 2.71547 17.5905 3.0918 17.7822C3.5192 18 4.07899 18 5.19691 18H14.8036C15.9215 18 16.4805 18 16.9079 17.7822C17.2842 17.5905 17.5905 17.2842 17.7822 16.9079C18 16.4805 18 15.9215 18 14.8036V6M2 6V5.2002C2 4.08009 2 3.51962 2.21799 3.0918C2.40973 2.71547 2.71547 2.40973 3.0918 2.21799C3.51962 2 4.08009 2 5.2002 2H6M18 6V5.19691C18 4.07899 18 3.5192 17.7822 3.0918C17.5905 2.71547 17.2842 2.40973 16.9079 2.21799C16.4801 2 15.9203 2 14.8002 2H14M6 2H14M6 2V0M14 2V0M12.5 12H10M10 12H7.5M10 12V9.5M10 12V14.5" stroke="#2D2522" stroke-width="1.5" stroke-linecap="round" stroke-linejoin="round"/>
</g>
<defs>
<clipPath id="clip0_1972_7935">
<rect width="20" height="20" fill="white"/>
</clipPath>
</defs>
</svg>
