<svg width="20" height="20" viewBox="0 0 20 20" fill="none" xmlns="http://www.w3.org/2000/svg">
<g clip-path="url(#clip0_1972_7966)">
<path d="M6 2H5.2002C4.08009 2 3.51962 2 3.0918 2.21799C2.71547 2.40973 2.40973 2.71547 2.21799 3.0918C2 3.51962 2 4.08009 2 5.2002V6M6 2H14M6 2V0M14 2H14.8002C15.9203 2 16.4796 2 16.9074 2.21799C17.2837 2.40973 17.5905 2.71547 17.7822 3.0918C18 3.5192 18 4.07899 18 5.19691V6M14 2V0M2 6V14.8002C2 15.9203 2 16.4801 2.21799 16.9079C2.40973 17.2842 2.71547 17.5905 3.0918 17.7822C3.5192 18 4.07899 18 5.19691 18H14.8031C15.921 18 16.48 18 16.9074 17.7822C17.2837 17.5905 17.5905 17.2842 17.7822 16.9079C18 16.4805 18 15.9215 18 14.8036V6M2 6H18M14 14H14.002L14.002 14.002L14 14.002V14ZM10 14H10.002L10.002 14.002L10 14.002V14ZM6 14H6.002L6.00195 14.002L6 14.002V14ZM14.002 10V10.002L14 10.002V10H14.002ZM10 10H10.002L10.002 10.002L10 10.002V10ZM6 10H6.002L6.00195 10.002L6 10.002V10Z" stroke="#2D2522" stroke-width="1.5" stroke-linecap="round" stroke-linejoin="round"/>
</g>
<defs>
<clipPath id="clip0_1972_7966">
<rect width="20" height="20" fill="white"/>
</clipPath>
</defs>
</svg>
