<svg width="30" height="30" viewBox="0 0 30 30" fill="none" xmlns="http://www.w3.org/2000/svg">
<path d="M12 9.55556H11.4001C10.5601 9.55556 10.1397 9.55556 9.81885 9.7251C9.5366 9.87424 9.3073 10.112 9.16349 10.4047C9 10.7375 9 11.1734 9 12.0446V12.6667M12 9.55556H18M12 9.55556V8M18 9.55556H18.6001C19.4402 9.55556 19.8597 9.55556 20.1805 9.7251C20.4628 9.87424 20.6929 10.112 20.8367 10.4047C21 10.7372 21 11.1726 21 12.042V12.6667M18 9.55556V8M9 12.6667V19.5113C9 20.3825 9 20.8178 9.16349 21.1506C9.3073 21.4433 9.5366 21.6815 9.81885 21.8306C10.1394 22 10.5592 22 11.3977 22H18.6023C19.4408 22 19.86 22 20.1805 21.8306C20.4628 21.6815 20.6929 21.4433 20.8367 21.1506C21 20.8182 21 20.3834 21 19.5139V12.6667M9 12.6667H21M18 18.8889H18.0015L18.0015 18.8904L18 18.8904V18.8889ZM15 18.8889H15.0015L15.0015 18.8904L15 18.8904V18.8889ZM12 18.8889H12.0015L12.0015 18.8904L12 18.8904V18.8889ZM18.0015 15.7778V15.7793L18 15.7793V15.7778H18.0015ZM15 15.7778H15.0015L15.0015 15.7793L15 15.7793V15.7778ZM12 15.7778H12.0015L12.0015 15.7793L12 15.7793V15.7778Z" stroke="#2D2522" stroke-width="1.5" stroke-linecap="round" stroke-linejoin="round"/>
</svg>
