<svg width="30" height="30" viewBox="0 0 30 30" fill="none" xmlns="http://www.w3.org/2000/svg">
<path d="M9 12.6667H21M9 12.6667V19.5113C9 20.3825 9 20.8178 9.16349 21.1506C9.3073 21.4433 9.5366 21.6815 9.81885 21.8306C10.1394 22 10.5592 22 11.3977 22H18.6027C19.4411 22 19.8604 22 20.1809 21.8306C20.4632 21.6815 20.6929 21.4433 20.8367 21.1506C21 20.8182 21 20.3834 21 19.5139V12.6667M9 12.6667V12.0446C9 11.1734 9 10.7375 9.16349 10.4047C9.3073 10.112 9.5366 9.87424 9.81885 9.7251C10.1397 9.55556 10.5601 9.55556 11.4001 9.55556H12M21 12.6667V12.042C21 11.1726 21 10.7372 20.8367 10.4047C20.6929 10.112 20.4632 9.87424 20.1809 9.7251C19.86 9.55556 19.4402 9.55556 18.6001 9.55556H18M12 9.55556H18M12 9.55556V8M18 9.55556V8M16.875 17.3333H15M15 17.3333H13.125M15 17.3333V15.3889M15 17.3333V19.2778" stroke="#2D2522" stroke-width="1.5" stroke-linecap="round" stroke-linejoin="round"/>
</svg>
