<svg width="30" height="30" viewBox="0 0 30 30" fill="none" xmlns="http://www.w3.org/2000/svg">
<path d="M11.5076 21.0681C12.5354 21.6609 13.728 22 14.9997 22C18.8657 22 22 18.866 22 15C22 11.134 18.866 8 15 8C11.134 8 8 11.134 8 15C8 16.2718 8.33915 17.4643 8.93193 18.4922L8.93422 18.4961C8.99126 18.595 9.02002 18.6449 9.03305 18.692C9.04534 18.7365 9.04877 18.7764 9.04562 18.8225C9.04224 18.8719 9.02558 18.9232 8.99142 19.0256L8.39345 20.8196L8.39269 20.8219C8.26653 21.2004 8.20344 21.3897 8.24841 21.5158C8.28762 21.6257 8.37464 21.7125 8.48459 21.7517C8.61041 21.7966 8.79881 21.7338 9.17565 21.6082L9.18034 21.6064L10.9743 21.0084C11.0764 20.9744 11.1283 20.9571 11.1777 20.9538C11.2237 20.9506 11.2634 20.9548 11.3078 20.967C11.3551 20.9801 11.405 21.0089 11.5044 21.0662L11.5076 21.0681Z" stroke="#2D2522" stroke-width="1.5" stroke-linecap="round" stroke-linejoin="round"/>
</svg>
