<svg width="30" height="30" viewBox="0 0 30 30" fill="none" xmlns="http://www.w3.org/2000/svg">
<path d="M12.7806 12.7239C12.9134 12.3146 13.1568 11.9503 13.4839 11.6707C13.8111 11.3911 14.2096 11.2074 14.6347 11.1399C15.0597 11.0725 15.4948 11.1239 15.8925 11.2885C16.2901 11.4531 16.6345 11.7246 16.8875 12.0727C17.1405 12.4208 17.292 12.832 17.3258 13.261C17.3597 13.69 17.2741 14.1202 17.0788 14.5036C16.8834 14.8871 16.5862 15.2088 16.2193 15.4337C15.8523 15.6586 15.4304 15.7776 15 15.7776V16.5557M15 22C11.134 22 8 18.866 8 15C8 11.134 11.134 8 15 8C18.866 8 22 11.134 22 15C22 18.866 18.866 22 15 22ZM15.0387 18.8889V18.9667L14.9613 18.9668V18.8889H15.0387Z" stroke="#2D2522" stroke-width="1.5" stroke-linecap="round" stroke-linejoin="round"/>
</svg>
