<svg width="30" height="30" viewBox="0 0 30 30" fill="none" xmlns="http://www.w3.org/2000/svg">
<path d="M19 19L15 15M15 15L11 11M15 15L19 11M15 15L11 19" stroke="#E29578" stroke-width="1.5" stroke-linecap="round" stroke-linejoin="round"/>
<circle cx="15" cy="15" r="11.25" stroke="#E5E5E5" stroke-width="1.5"/>
<path d="M25.7091 12.487C26.2349 14.7276 26.0446 17.0767 25.1651 19.2035C24.2856 21.3304 22.7612 23.1278 20.8065 24.3426C18.8517 25.5575 16.5652 26.1287 14.2688 25.9757C11.9723 25.8227 9.78177 24.9532 8.00547 23.4898C6.22917 22.0263 4.95664 20.0426 4.36706 17.8179C3.77748 15.5932 3.90055 13.2396 4.71894 11.0885C5.53733 8.93743 7.00981 7.09723 8.92905 5.82702C10.8483 4.55681 13.1176 3.92058 15.4174 4.00792" stroke="#E29578" stroke-width="1.5" stroke-linecap="round"/>
</svg>
