<svg width="20" height="20" viewBox="0 0 20 20" fill="none" xmlns="http://www.w3.org/2000/svg">
<g clip-path="url(#clip0_1972_7929)">
<path d="M14 14L10 10M10 10L6 6M10 10L14 6M10 10L6 14" stroke="#E29578" stroke-width="1.5" stroke-linecap="round" stroke-linejoin="round"/>
<circle cx="10" cy="10" r="9.25" stroke="#FDF0EB" stroke-width="1.5"/>
<path d="M19.25 10C19.25 11.8295 18.7075 13.6179 17.6911 15.139C16.6747 16.6602 15.23 17.8458 13.5398 18.5459C11.8496 19.246 9.98974 19.4292 8.19541 19.0723C6.40109 18.7154 4.7529 17.8344 3.45926 16.5407C2.16563 15.2471 1.28465 13.5989 0.927736 11.8046C0.570823 10.0103 0.754004 8.15039 1.45411 6.46018C2.15422 4.76996 3.33982 3.32531 4.86098 2.30891C6.38213 1.2925 8.17052 0.75 10 0.75" stroke="#E29578" stroke-width="1.5" stroke-linecap="round"/>
</g>
<defs>
<clipPath id="clip0_1972_7929">
<rect width="20" height="20" fill="white"/>
</clipPath>
</defs>
</svg>
