<svg width="20" height="20" viewBox="0 0 20 20" fill="none" xmlns="http://www.w3.org/2000/svg">
<path d="M9.38184 2.5918C10.6467 2.58325 12.0591 3.08657 12.626 4.20508L12.8379 4.62305L13.2676 4.43945C14.7025 3.82812 16.4074 4.29492 17.3291 5.55469L17.5029 5.81738C17.9451 6.55998 18.0541 7.39472 17.8779 8.16016L17.8125 8.44141L18.0225 8.6377C18.2891 8.88744 18.5255 9.17585 18.7197 9.50195C19.8212 11.3515 19.1928 13.6976 17.3145 14.749L17.1953 14.8154L17.1943 14.8164C16.0141 15.4769 14.6179 15.471 13.4639 14.9131L12.959 14.6699L12.7744 15.1973C12.5274 15.9007 12.0304 16.5232 11.3154 16.9238L11.2119 16.9805L11.2109 16.9814C9.62057 17.8716 7.56913 17.3226 6.63672 15.7568C6.5616 15.6306 6.49685 15.4983 6.43848 15.3613L6.22363 14.8574L5.74121 15.1172L5.68164 15.1494H5.68066L5.67383 15.1533C4.11092 16.0281 2.09519 15.4889 1.17871 13.9502C0.332212 12.5287 0.722825 10.755 2.02637 9.81348L2.40918 9.53711L2.1543 9.13867C1.28625 7.78217 1.7013 5.95529 3.04785 5.10352L3.18164 5.02441L3.27637 4.96973C4.0415 4.54156 4.92595 4.47813 5.71875 4.72656L6.07715 4.83984L6.28418 4.52637C7.06183 3.35276 8.24534 2.59968 9.38184 2.5918Z" fill="#E29578" stroke="#E29578"/>
</svg>
