<svg width="20" height="20" viewBox="0 0 20 20" fill="none" xmlns="http://www.w3.org/2000/svg">
<g clip-path="url(#clip0_1972_7959)">
<path d="M2 18H8.94328M8.94328 18H9.05672M8.94328 18C8.96217 18.0002 8.98107 18.0002 9 18.0002C9.01893 18.0002 9.03783 18.0002 9.05672 18M8.94328 18C5.1034 17.9695 2 14.8468 2 10.9998V6.92285C2 6.41305 2.41305 6 2.92285 6H15.0767C15.5865 6 16 6.41305 16 6.92285V7M9.05672 18H16M9.05672 18C12.8966 17.9695 16 14.8468 16 10.9998M16 7H17.5C18.8807 7 20 8.11929 20 9.5C20 10.8807 18.8807 12 17.5 12H16V10.9998M16 7V10.9998M13 1L12 3M10 1L9 3M7 1L6 3" stroke="#2D2522" stroke-width="1.5" stroke-linecap="round" stroke-linejoin="round"/>
</g>
<defs>
<clipPath id="clip0_1972_7959">
<rect width="20" height="20" fill="white"/>
</clipPath>
</defs>
</svg>
