<svg width="30" height="30" viewBox="0 0 30 30" fill="none" xmlns="http://www.w3.org/2000/svg">
<path d="M12.6666 12.6667V10.489C12.6666 9.61785 12.6666 9.18193 12.8362 8.84918C12.9853 8.55648 13.2231 8.31868 13.5158 8.16955C13.8485 8 14.2844 8 15.1556 8H19.5111C20.3823 8 20.8177 8 21.1504 8.16955C21.4431 8.31868 21.6813 8.55648 21.8305 8.84918C22 9.18193 22 9.61752 22 10.4887V14.8443C22 15.7155 22 16.1511 21.8305 16.4838C21.6813 16.7765 21.4429 17.0148 21.1502 17.164C20.8178 17.3333 20.3829 17.3333 19.5134 17.3333H17.3332M12.6666 12.6667H10.489C9.61783 12.6667 9.18191 12.6667 8.84917 12.8362C8.55647 12.9853 8.31868 13.2231 8.16954 13.5158C8 13.8486 8 14.2845 8 15.1557V19.5113C8 20.3825 8 20.8178 8.16954 21.1506C8.31868 21.4433 8.55647 21.6815 8.84917 21.8306C9.18159 22 9.61698 22 10.4865 22H14.8471C15.7166 22 16.1514 22 16.4838 21.8306C16.7765 21.6815 17.0147 21.443 17.1638 21.1503C17.3332 20.8179 17.3332 20.383 17.3332 19.5135V17.3333M12.6666 12.6667H14.8445C15.7157 12.6667 16.1511 12.6667 16.4838 12.8362C16.7765 12.9853 17.0147 13.2231 17.1638 13.5158C17.3332 13.8483 17.3332 14.2837 17.3332 15.1532L17.3332 17.3333" stroke="#2D2522" stroke-width="1.5" stroke-linecap="round" stroke-linejoin="round"/>
</svg>
