<svg width="20" height="20" viewBox="0 0 20 20" fill="none" xmlns="http://www.w3.org/2000/svg">
<path d="M1 8.5V13.8002C1 14.9203 1 15.4801 1.21799 15.9079C1.40973 16.2842 1.71547 16.5905 2.0918 16.7822C2.5192 17 3.07899 17 4.19691 17H15.8031C16.921 17 17.48 17 17.9074 16.7822C18.2837 16.5905 18.5905 16.2842 18.7822 15.9079C19 15.4805 19 14.9215 19 13.8036V8.5M1 8.5V7M1 8.5H19M1 7V6.2002C1 5.08009 1 4.51962 1.21799 4.0918C1.40973 3.71547 1.71547 3.40973 2.0918 3.21799C2.51962 3 3.08009 3 4.2002 3H15.8002C16.9203 3 17.4796 3 17.9074 3.21799C18.2837 3.40973 18.5905 3.71547 18.7822 4.0918C19 4.5192 19 5.07899 19 6.19691V7M1 7H19M5 13H9M19 8.5V7" stroke="#2D2522" stroke-width="1.5" stroke-linecap="round" stroke-linejoin="round"/>
</svg>
