<svg width="30" height="30" viewBox="0 0 30 30" fill="none" xmlns="http://www.w3.org/2000/svg">
<path d="M7 14.1429V18.2573C7 19.2174 7 19.6972 7.19377 20.0639C7.36421 20.3865 7.63598 20.649 7.97049 20.8133C8.3504 21 8.84799 21 9.8417 21H20.1583C21.152 21 21.6489 21 22.0288 20.8133C22.3633 20.649 22.636 20.3865 22.8064 20.0639C23 19.6976 23 19.2184 23 18.2602V14.1429M7 14.1429V12.4286M7 14.1429H23M7 12.4286V11.743C7 10.7829 7 10.3025 7.19377 9.93583C7.36421 9.61326 7.63598 9.3512 7.97049 9.18685C8.35077 9 8.84897 9 9.84462 9H20.1557C21.1514 9 21.6485 9 22.0288 9.18685C22.3633 9.3512 22.636 9.61326 22.8064 9.93583C23 10.3022 23 10.782 23 11.7402V12.4286M7 12.4286H23M10.5556 17.5714H14.1111M23 14.1429V12.4286" stroke="#2D2522" stroke-width="1.5" stroke-linecap="round" stroke-linejoin="round"/>
</svg>
