<svg width="30" height="30" viewBox="0 0 30 30" fill="none" xmlns="http://www.w3.org/2000/svg">
<path d="M14.9524 11.968L8.79292 18.1274V21.207L11.8726 21.207L18.0321 15.0477M14.9524 11.968L17.161 9.75937L17.1623 9.75806C17.4664 9.45403 17.6186 9.30175 17.7942 9.24471C17.9488 9.19447 18.1154 9.19447 18.27 9.24471C18.4455 9.30171 18.5976 9.45382 18.9012 9.75742L20.2407 11.0969C20.5456 11.4018 20.6981 11.5543 20.7552 11.7301C20.8055 11.8848 20.8055 12.0513 20.7552 12.206C20.6982 12.3816 20.5459 12.5339 20.2414 12.8384L20.2407 12.839L18.0321 15.0477M14.9524 11.968L18.0321 15.0477" stroke="#2D2522" stroke-width="1.5" stroke-linecap="round" stroke-linejoin="round"/>
</svg>
