<svg width="20" height="20" viewBox="0 0 20 20" fill="none" xmlns="http://www.w3.org/2000/svg">
<path d="M10 6.00012L2 14.0001V18.0001L6 18.0001L14 10.0001M10 6.00012L12.8686 3.13146L12.8704 3.12976C13.2652 2.73488 13.463 2.53709 13.691 2.46301C13.8919 2.39775 14.1082 2.39775 14.3091 2.46301C14.5369 2.53704 14.7345 2.7346 15.1288 3.12892L16.8686 4.86872C17.2646 5.26474 17.4627 5.46284 17.5369 5.69117C17.6022 5.89201 17.6021 6.10835 17.5369 6.3092C17.4628 6.53736 17.265 6.73516 16.8695 7.13061L16.8686 7.13146L14 10.0001M10 6.00012L14 10.0001" stroke="#2D2522" stroke-width="1.5" stroke-linecap="round" stroke-linejoin="round"/>
</svg>
