<svg width="30" height="30" viewBox="0 0 30 30" fill="none" xmlns="http://www.w3.org/2000/svg">
<path d="M15 9.91176V11.8235M15 9.91176C15 8.85593 15.8706 8 16.9444 8C18.0183 8 18.8889 8.85593 18.8889 9.91176C18.8889 10.9676 18.0183 11.8235 16.9444 11.8235M15 9.91176C15 8.85593 14.1294 8 13.0556 8C11.9817 8 11.1111 8.85593 11.1111 9.91176C11.1111 10.9676 11.9817 11.8235 13.0556 11.8235M15 11.8235H16.9444M15 11.8235H13.0556M15 11.8235V16.4118M16.9444 11.8235H19.0113C19.8825 11.8235 20.3174 11.8235 20.6502 11.9902C20.9429 12.1369 21.1815 12.3707 21.3306 12.6584C21.5 12.9853 21.5 13.4133 21.5 14.2682V16.4118M13.0556 11.8235H10.989C10.1178 11.8235 9.68193 11.8235 9.34918 11.9902C9.05648 12.1369 8.81868 12.3707 8.66955 12.6584C8.5 12.9856 8.5 13.4142 8.5 14.2707V16.4118M8.5 16.4118V18.5531C8.5 19.4096 8.5 19.8377 8.66955 20.1649C8.81868 20.4526 9.05648 20.6868 9.34918 20.8335C9.6816 21 10.117 21 10.9865 21H15M8.5 16.4118H15M15 16.4118V21M15 16.4118H21.5M15 21H19.0135C19.883 21 20.3178 21 20.6502 20.8335C20.9429 20.6868 21.1815 20.4526 21.3306 20.1649C21.5 19.838 21.5 19.4106 21.5 18.5557V16.4118" stroke="#2D2522" stroke-width="1.5" stroke-linecap="round" stroke-linejoin="round"/>
</svg>
