<svg width="20" height="20" viewBox="0 0 20 20" fill="none" xmlns="http://www.w3.org/2000/svg">
<path d="M17 13C18.1046 13 19 13.8832 19 14.9726V17.0274C19 18.1169 18.1046 19 17 19H14C12.8954 19 12 18.1169 12 17.0274L12 14.9726C12 13.8832 12.8954 13 14 13H17Z" stroke="#2D2522" stroke-width="1.5" stroke-linecap="round" stroke-linejoin="round"/>
<path d="M3 10C1.89543 10 1 10.8832 1 11.9726L1 17.0274C1 18.1169 1.89543 19 3 19H6C7.10457 19 8 18.1169 8 17.0274L8 11.9726C8 10.8832 7.10457 10 6 10H3Z" stroke="#2D2522" stroke-width="1.5" stroke-linecap="round" stroke-linejoin="round"/>
<path d="M3 1C1.89543 1 1 1.88316 1 2.9726L1 5.0274C1 6.11683 1.89543 7 3 7H6C7.10457 7 8 6.11683 8 5.0274L8 2.9726C8 1.88316 7.10457 1 6 1H3Z" stroke="#2D2522" stroke-width="1.5" stroke-linecap="round" stroke-linejoin="round"/>
<path d="M14 1C12.8954 1 12 1.88316 12 2.9726L12 8.0274C12 9.11683 12.8954 10 14 10H17C18.1046 10 19 9.11683 19 8.0274L19 2.9726C19 1.88316 18.1046 1 17 1H14Z" stroke="#2D2522" stroke-width="1.5" stroke-linecap="round" stroke-linejoin="round"/>
</svg>
