<svg width="20" height="20" viewBox="0 0 20 20" fill="none" xmlns="http://www.w3.org/2000/svg">
<path d="M10 1C14.9706 1 19 5.02944 19 10C19 14.9706 14.9706 19 10 19C5.02944 19 1 14.9706 1 10C1 5.02944 5.02944 1 10 1Z" fill="#FEB8B4"/>
<path d="M10 1C14.9706 1 19 5.02944 19 10C19 14.9706 14.9706 19 10 19C5.02944 19 1 14.9706 1 10C1 5.02944 5.02944 1 10 1Z" stroke="#FDF0EB" stroke-width="2" stroke-linecap="round" stroke-linejoin="round"/>
<path d="M5 10H9.99999M9.99999 10H15M9.99999 10V15M9.99999 10V5" stroke="white" stroke-width="5" stroke-linejoin="round"/>
</svg>
