<svg width="30" height="30" viewBox="0 0 30 30" fill="none" xmlns="http://www.w3.org/2000/svg">
<path d="M16.62 20.973L20.9733 16.6198C21.5403 16.0528 21.8237 15.7691 21.9299 15.4422C22.0234 15.1546 22.0234 14.8455 21.9299 14.5579C21.8237 14.231 21.5403 13.9469 20.9733 13.38L16.619 9.0258C16.0527 8.45946 15.7694 8.17623 15.4427 8.07007C15.1552 7.97664 14.8453 7.97664 14.5577 8.07007C14.231 8.17624 13.947 8.46025 13.3804 9.02676L9.02713 13.38L9.02679 13.3806C8.46003 13.9474 8.17627 14.2311 8.07007 14.5579C7.97664 14.8455 7.97664 15.1546 8.07007 15.4422C8.17623 15.7689 8.45982 16.0525 9.02618 16.6188L13.3831 20.9757C13.9483 21.5409 14.2314 21.8239 14.5577 21.9299C14.8453 22.0234 15.1552 22.0234 15.4427 21.9299C15.7695 21.8237 16.0528 21.5405 16.6194 20.9739L16.62 20.973Z" stroke="#2D2522" stroke-width="1.5" stroke-linecap="round" stroke-linejoin="round"/>
</svg>
