<svg width="20" height="20" viewBox="0 0 20 20" fill="none" xmlns="http://www.w3.org/2000/svg">
<path d="M11.8514 16.8263L16.8266 11.8512C17.4746 11.2032 17.7985 10.879 17.9199 10.5054C18.0267 10.1767 18.0267 9.82341 17.9199 9.49478C17.7985 9.12118 17.4746 8.7965 16.8266 8.14852L11.8503 3.17234C11.2031 2.5251 10.8794 2.2014 10.506 2.08008C10.1773 1.97331 9.82321 1.97331 9.49457 2.08008C9.12112 2.20142 8.79653 2.526 8.14907 3.17344L3.17387 8.14852L3.17347 8.14926C2.52574 8.79698 2.20145 9.12126 2.08009 9.49478C1.9733 9.82341 1.9733 10.1767 2.08009 10.5054C2.20141 10.8787 2.52551 11.2028 3.17277 11.8501L8.15215 16.8293C8.79809 17.4753 9.12156 17.7987 9.49457 17.9199C9.82321 18.0267 10.1773 18.0267 10.506 17.9199C10.8794 17.7986 11.2032 17.4748 11.8507 16.8273L11.8514 16.8263Z" stroke="#2D2522" stroke-width="1.5" stroke-linecap="round" stroke-linejoin="round"/>
</svg>
