<svg width="20" height="20" viewBox="0 0 20 20" fill="none" xmlns="http://www.w3.org/2000/svg">
<path d="M17.2933 7.95137L14.96 5.15137C14.6073 4.72814 14.43 4.51639 14.2139 4.36426C14.0223 4.22946 13.8084 4.12953 13.5822 4.06868C13.327 4 13.0523 4 12.5014 4H5.2002C4.08009 4 3.51962 4 3.0918 4.21799C2.71547 4.40973 2.40973 4.71547 2.21799 5.0918C2 5.51962 2 6.08009 2 7.2002V12.8002C2 13.9203 2 14.4801 2.21799 14.9079C2.40973 15.2842 2.71547 15.5905 3.0918 15.7822C3.5192 16 4.07899 16 5.19691 16H12.5014C13.0523 16 13.327 15.9998 13.5822 15.9312C13.8084 15.8703 14.0223 15.7702 14.2139 15.6354C14.43 15.4833 14.6073 15.2721 14.96 14.8488L17.2933 12.0488C17.9006 11.32 18.2036 10.9556 18.3197 10.5488C18.422 10.1902 18.422 9.80952 18.3197 9.4509C18.2036 9.04414 17.9006 8.68015 17.2933 7.95137Z" stroke="#2D2522" stroke-width="1.5" stroke-linecap="round" stroke-linejoin="round"/>
</svg>
