<svg width="20" height="20" viewBox="0 0 20 20" fill="none" xmlns="http://www.w3.org/2000/svg">
<g clip-path="url(#clip0_1972_7919)">
<path d="M9.29558 1.14006C8.95729 1.28019 8.65401 1.58345 8.04752 2.18993C7.44116 2.79628 7.13776 3.09967 6.99764 3.43792C6.81081 3.88897 6.81081 4.39582 6.99764 4.84688C7.13777 5.18517 7.44103 5.48842 8.04754 6.09491C8.65371 6.70107 8.95735 7.00471 9.29556 7.14479C9.74662 7.33162 10.2535 7.33162 10.7046 7.14479C11.0429 7.00466 11.3461 6.70141 11.9526 6.09492C12.5591 5.48842 12.8615 5.18517 13.0016 4.84688C13.1885 4.39582 13.1885 3.88897 13.0016 3.43792C12.8615 3.09963 12.5591 2.79643 11.9526 2.18993C11.3461 1.58344 11.0428 1.28019 10.7046 1.14006C10.2535 0.953231 9.74665 0.953231 9.29558 1.14006Z" stroke="#2D2522" stroke-width="1.5" stroke-linecap="round" stroke-linejoin="round"/>
<path d="M3.4377 6.99735C3.0994 7.13748 2.79614 7.44073 2.18963 8.04722C1.58329 8.65355 1.27987 8.95696 1.13976 9.29521C0.952925 9.74626 0.952925 10.2531 1.13976 10.7042C1.27989 11.0425 1.58315 11.3457 2.18966 11.9522C2.79582 12.5584 3.09947 12.862 3.43767 13.0021C3.88874 13.1889 4.3956 13.1889 4.84667 13.0021C5.18497 12.862 5.48822 12.5587 6.09473 11.9522C6.70125 11.3457 7.00361 11.0425 7.14374 10.7042C7.33057 10.2531 7.33057 9.74626 7.14374 9.29521C7.00361 8.95692 6.70125 8.65372 6.09473 8.04722C5.48822 7.44073 5.18497 7.13748 4.84667 6.99735C4.3956 6.81052 3.88876 6.81052 3.4377 6.99735Z" stroke="#2D2522" stroke-width="1.5" stroke-linecap="round" stroke-linejoin="round"/>
<path d="M13.9054 8.04722C13.299 8.65356 12.9956 8.95696 12.8555 9.29521C12.6687 9.74626 12.6687 10.2531 12.8555 10.7042C12.9957 11.0425 13.2989 11.3457 13.9054 11.9522C14.5116 12.5583 14.8152 12.862 15.1534 13.0021C15.6045 13.1889 16.1114 13.1889 16.5624 13.0021C16.9007 12.862 17.204 12.5587 17.8105 11.9522C18.417 11.3457 18.7194 11.0425 18.8595 10.7042C19.0463 10.2531 19.0463 9.74626 18.8595 9.29521C18.7194 8.95692 18.417 8.65371 17.8105 8.04722C17.204 7.44073 16.9007 7.13748 16.5624 6.99735C16.1114 6.81052 15.6045 6.81052 15.1535 6.99735C14.8152 7.13747 14.5119 7.44074 13.9054 8.04722Z" stroke="#2D2522" stroke-width="1.5" stroke-linecap="round" stroke-linejoin="round"/>
<path d="M9.29558 12.8551C8.95728 12.9952 8.65402 13.2985 8.04752 13.905C7.44117 14.5113 7.13775 14.8147 6.99764 15.1529C6.81081 15.604 6.81081 16.1109 6.99764 16.5619C7.13777 16.9002 7.44103 17.2034 8.04754 17.8099C8.65371 18.4161 8.95736 18.7197 9.29556 18.8598C9.74662 19.0466 10.2535 19.0466 10.7046 18.8598C11.0429 18.7197 11.3461 18.4164 11.9526 17.8099C12.5591 17.2034 12.8615 16.9002 13.0016 16.5619C13.1885 16.1109 13.1885 15.604 13.0016 15.1529C12.8615 14.8147 12.5591 14.5115 11.9526 13.905C11.3461 13.2985 11.0428 12.9952 10.7046 12.8551C10.2535 12.6683 9.74665 12.6683 9.29558 12.8551Z" stroke="#2D2522" stroke-width="1.5" stroke-linecap="round" stroke-linejoin="round"/>
</g>
<defs>
<clipPath id="clip0_1972_7919">
<rect width="20" height="20" fill="white"/>
</clipPath>
</defs>
</svg>
