<svg width="30" height="30" viewBox="0 0 30 30" fill="none" xmlns="http://www.w3.org/2000/svg">
<path d="M13.0573 8.97784C12.8211 8.38726 12.2491 8 11.6131 8H9.47365C8.65977 8 8 8.65963 8 9.47353C8 16.3916 13.6082 22 20.5262 22C21.34 22 21.9996 21.3402 21.9996 20.5263L22 18.3864C22 17.7503 21.6129 17.1785 21.0223 16.9422L18.9718 16.1223C18.4413 15.9101 17.8373 16.0056 17.3984 16.3714L16.8692 16.8128C16.2511 17.3278 15.3417 17.2868 14.7729 16.718L13.2827 15.2264C12.7138 14.6575 12.6718 13.7488 13.1868 13.1308L13.6281 12.6016C13.9939 12.1626 14.0902 11.5585 13.878 11.028L13.0573 8.97784Z" stroke="#2D2522" stroke-width="1.5" stroke-linecap="round" stroke-linejoin="round"/>
</svg>
