<svg width="20" height="20" viewBox="0 0 20 20" fill="none" xmlns="http://www.w3.org/2000/svg">
<path d="M7.10583 10.0091L12.8719 6.7949M18.2676 5.31883L11.0861 16.3707C10.4425 17.3612 10.1205 17.8566 9.77413 17.9589C9.47369 18.0476 9.14785 17.9911 8.89872 17.8063C8.61146 17.5932 8.48948 17.0197 8.24662 15.8738L7.11825 10.55C7.07972 10.3682 7.06031 10.2776 7.02412 10.1938C6.99201 10.1194 6.95062 10.0491 6.89996 9.9851C6.84415 9.91457 6.77374 9.85429 6.63632 9.73665L2.41544 6.12296C1.50907 5.34698 1.0559 4.95874 1.0084 4.612C0.9672 4.3113 1.07918 4.01023 1.30894 3.80336C1.57387 3.56481 2.1793 3.54304 3.38989 3.50012L16.894 3.02138C17.8457 2.98764 18.3217 2.97092 18.5895 3.15301C18.8227 3.31162 18.972 3.56108 18.9977 3.8354C19.0271 4.15018 18.7741 4.5396 18.2685 5.31772L18.2676 5.31883Z" stroke="#2D2522" stroke-width="1.5" stroke-linecap="round" stroke-linejoin="round"/>
</svg>
