<svg width="20" height="20" viewBox="0 0 20 20" fill="none" xmlns="http://www.w3.org/2000/svg">
<path d="M16.6825 7.38898L16.3895 7.2161C16.3439 7.18926 16.3216 7.17579 16.2996 7.16183C16.081 7.02301 15.8968 6.83122 15.7624 6.60176C15.7489 6.57867 15.7361 6.55446 15.71 6.50661C15.684 6.45882 15.6708 6.4346 15.6587 6.41063C15.5381 6.17191 15.4729 5.90587 15.469 5.6351C15.4686 5.60788 15.4687 5.58007 15.4696 5.52477L15.4753 5.16391C15.4845 4.58643 15.4891 4.2968 15.4125 4.03687C15.3445 3.80598 15.2308 3.59333 15.0789 3.41286C14.9072 3.20886 14.6696 3.06332 14.1938 2.77262L13.7986 2.53115C13.3241 2.24126 13.0868 2.09626 12.8349 2.04099C12.6121 1.99208 12.3821 1.99435 12.1601 2.0472C11.9095 2.10685 11.6752 2.25563 11.2067 2.55301L11.2041 2.55436L10.9209 2.73413C10.8761 2.76256 10.8535 2.77689 10.831 2.79012C10.6083 2.92141 10.3597 2.994 10.105 3.00267C10.0794 3.00355 10.0532 3.00355 10.001 3.00355C9.94915 3.00355 9.92192 3.00355 9.8963 3.00267C9.64107 2.99397 9.39193 2.92098 9.16887 2.78914C9.14639 2.77586 9.12415 2.76141 9.07929 2.73285L8.79431 2.55146C8.32271 2.25126 8.08656 2.10094 7.83456 2.04099C7.61162 1.98795 7.38087 1.98648 7.15721 2.03602C6.90467 2.09194 6.6673 2.23802 6.19257 2.53016L6.19046 2.53115L5.80018 2.77133L5.79586 2.77413C5.3254 3.06364 5.08961 3.20875 4.91937 3.41191C4.7683 3.5922 4.65538 3.80452 4.5878 4.0348C4.51141 4.29508 4.51548 4.58533 4.52468 5.16553L4.5304 5.52589C4.53127 5.58045 4.53277 5.60757 4.53239 5.63441C4.52861 5.90573 4.46252 6.17231 4.34158 6.41145C4.32962 6.4351 4.31674 6.45876 4.291 6.506C4.26524 6.55327 4.25277 6.57678 4.23942 6.5996C4.10438 6.83028 3.91933 7.02319 3.6994 7.16224C3.67765 7.17599 3.65472 7.18922 3.60967 7.21569L3.32031 7.38572C2.83887 7.6686 2.5982 7.81017 2.42308 8.01163C2.26817 8.18986 2.15114 8.40126 2.0797 8.63149C1.99895 8.89175 1.99901 9.18358 2.00026 9.7672L2.00129 10.2442C2.00253 10.8239 2.00423 11.1136 2.08516 11.3721C2.15676 11.6008 2.27294 11.8109 2.42699 11.9881C2.60112 12.1883 2.83939 12.329 3.31718 12.6108L3.60397 12.78C3.65277 12.8088 3.67733 12.823 3.70087 12.838C3.91881 12.9772 4.10241 13.1695 4.23629 13.3989C4.25075 13.4237 4.26464 13.4494 4.2924 13.5008C4.31983 13.5516 4.33385 13.577 4.34654 13.6025C4.46392 13.8381 4.52677 14.0999 4.53105 14.3664C4.53152 14.3952 4.53112 14.4243 4.53019 14.4828L4.52468 14.8286C4.51541 15.4108 4.51138 15.7022 4.58822 15.9632C4.6562 16.1941 4.76983 16.4068 4.92171 16.5872C5.0934 16.7913 5.33141 16.9367 5.80721 17.2274L6.20233 17.4688C6.6768 17.7587 6.91394 17.9035 7.16584 17.9588C7.38868 18.0077 7.61878 18.0058 7.84082 17.953C8.09178 17.8932 8.32692 17.7439 8.79666 17.4457L9.07983 17.2659C9.12463 17.2375 9.14731 17.2232 9.16976 17.21C9.39246 17.0787 9.64084 17.0057 9.89552 16.9971C9.92119 16.9962 9.9473 16.9962 9.99951 16.9962C10.0518 16.9962 10.0779 16.9962 10.1036 16.9971C10.3589 17.0058 10.6088 17.079 10.8318 17.2108C10.8514 17.2224 10.8711 17.235 10.9056 17.257L11.2067 17.4486C11.6783 17.7488 11.914 17.8987 12.166 17.9586C12.3889 18.0117 12.6199 18.0138 12.8435 17.9643C13.096 17.9084 13.3339 17.762 13.8083 17.4701L14.2045 17.2263C14.6752 16.9366 14.9113 16.7913 15.0816 16.5881C15.2326 16.4078 15.3457 16.1956 15.4133 15.9653C15.4891 15.7069 15.4846 15.4189 15.4755 14.8471L15.4696 14.4741C15.4687 14.4195 15.4686 14.3924 15.469 14.3656C15.4728 14.0942 15.5378 13.8275 15.6587 13.5883C15.6706 13.5647 15.6836 13.5409 15.7093 13.4938C15.735 13.4465 15.7484 13.423 15.7617 13.4001C15.8968 13.1695 16.082 12.9764 16.3019 12.8373C16.3234 12.8237 16.3455 12.8107 16.3895 12.7849L16.391 12.7842L16.6804 12.6141C17.1618 12.3312 17.403 12.1895 17.5781 11.9881C17.733 11.8098 17.8499 11.5987 17.9213 11.3685C18.0016 11.1098 18.001 10.8196 17.9997 10.2428L17.9987 9.7556C17.9974 9.17588 17.9968 8.88626 17.9158 8.62776C17.8442 8.39908 17.7274 8.18891 17.5734 8.01176C17.3994 7.81172 17.1608 7.67098 16.6839 7.3897L16.6825 7.38898Z" stroke="#2D2522" stroke-width="1.5" stroke-linecap="round" stroke-linejoin="round"/>
<path d="M6.79901 10.0001C6.79901 11.8747 8.23225 13.3943 10.0003 13.3943C11.7683 13.3943 13.2015 11.8747 13.2015 10.0001C13.2015 8.12545 11.7683 6.60578 10.0003 6.60578C8.23225 6.60578 6.79901 8.12545 6.79901 10.0001Z" stroke="#2D2522" stroke-width="1.5" stroke-linecap="round" stroke-linejoin="round"/>
</svg>
