<svg width="30" height="30" viewBox="0 0 30 30" fill="none" xmlns="http://www.w3.org/2000/svg">
<path d="M21.7649 12.7154L21.4901 12.5641C21.4474 12.5406 21.4265 12.5288 21.4059 12.5166C21.201 12.3951 21.0283 12.2273 20.9022 12.0265C20.8895 12.0063 20.8776 11.9852 20.8532 11.9433C20.8288 11.9015 20.8164 11.8803 20.805 11.8593C20.692 11.6504 20.6308 11.4176 20.6272 11.1807C20.6268 11.1569 20.6269 11.1326 20.6277 11.0842L20.6331 10.7684C20.6417 10.2631 20.646 10.0097 20.5742 9.78226C20.5105 9.58024 20.4039 9.39416 20.2615 9.23625C20.1005 9.05775 19.8777 8.93041 19.4317 8.67604L19.0612 8.46476C18.6164 8.2111 18.3939 8.08423 18.1578 8.03586C17.9488 7.99307 17.7333 7.99506 17.5251 8.0413C17.2901 8.0935 17.0705 8.22367 16.6313 8.48388L16.6288 8.48506L16.3634 8.64237C16.3214 8.66724 16.3001 8.67978 16.2791 8.69135C16.0703 8.80623 15.8372 8.86975 15.5985 8.87734C15.5744 8.8781 15.5499 8.8781 15.501 8.8781C15.4523 8.8781 15.4268 8.8781 15.4028 8.87734C15.1635 8.86972 14.9299 8.80585 14.7208 8.6905C14.6997 8.67888 14.6789 8.66624 14.6368 8.64125L14.3697 8.48252C13.9275 8.21985 13.7061 8.08832 13.4699 8.03586C13.2609 7.98946 13.0446 7.98817 12.8349 8.03151C12.5981 8.08045 12.3756 8.20826 11.9305 8.46389L11.9286 8.46476L11.5627 8.67491L11.5586 8.67736C11.1176 8.93069 10.8965 9.05765 10.7369 9.23542C10.5953 9.39317 10.4894 9.57896 10.4261 9.78045C10.3544 10.0082 10.3583 10.2622 10.3669 10.7698L10.3723 11.0851C10.3731 11.1329 10.3745 11.1566 10.3741 11.1801C10.3706 11.4175 10.3086 11.6508 10.1952 11.86C10.184 11.8807 10.1719 11.9014 10.1478 11.9427C10.1237 11.9841 10.112 12.0047 10.0995 12.0246C9.97286 12.2265 9.79937 12.3953 9.59319 12.517C9.57279 12.529 9.5513 12.5406 9.50907 12.5637L9.23779 12.7125C8.78644 12.96 8.56082 13.0839 8.39664 13.2602C8.25141 13.4161 8.14169 13.6011 8.07472 13.8026C7.99901 14.0303 7.99908 14.2856 8.00025 14.7963L8.00121 15.2137C8.00237 15.7209 8.00397 15.9744 8.07984 16.2006C8.14697 16.4007 8.25588 16.5846 8.40031 16.7396C8.56355 16.9148 8.78693 17.0379 9.23486 17.2845L9.50372 17.4325C9.54947 17.4577 9.5725 17.4701 9.59456 17.4833C9.79888 17.605 9.97101 17.7733 10.0965 17.974C10.1101 17.9957 10.1231 18.0182 10.1491 18.0632C10.1748 18.1077 10.188 18.1299 10.1999 18.1522C10.3099 18.3584 10.3688 18.5874 10.3729 18.8206C10.3733 18.8458 10.3729 18.8713 10.3721 18.9225L10.3669 19.225C10.3582 19.7345 10.3544 19.9895 10.4265 20.2178C10.4902 20.4199 10.5967 20.6059 10.7391 20.7638C10.9001 20.9424 11.1232 21.0696 11.5693 21.324L11.9397 21.5352C12.3845 21.7889 12.6068 21.9156 12.843 21.964C13.0519 22.0068 13.2676 22.0051 13.4758 21.9588C13.711 21.9066 13.9315 21.7759 14.3719 21.515L14.6373 21.3577C14.6793 21.3328 14.7006 21.3203 14.7216 21.3088C14.9304 21.1939 15.1633 21.13 15.4021 21.1224C15.4261 21.1217 15.4506 21.1217 15.4995 21.1217C15.5486 21.1217 15.5731 21.1217 15.5972 21.1224C15.8365 21.1301 16.0707 21.1941 16.2798 21.3095C16.2982 21.3196 16.3167 21.3306 16.349 21.3498L16.6313 21.5175C17.0734 21.7802 17.2944 21.9114 17.5306 21.9638C17.7396 22.0102 17.9561 22.0121 18.1658 21.9688C18.4025 21.9199 18.6255 21.7918 19.0703 21.5363L19.4417 21.323C19.883 21.0695 20.1043 20.9424 20.264 20.7646C20.4056 20.6068 20.5116 20.4211 20.575 20.2196C20.6461 19.9935 20.6418 19.7415 20.6333 19.2412L20.6277 18.9148C20.6269 18.8671 20.6268 18.8433 20.6272 18.8199C20.6307 18.5825 20.6917 18.349 20.805 18.1398C20.8162 18.1191 20.8284 18.0983 20.8525 18.0571C20.8766 18.0157 20.8891 17.9951 20.9016 17.9751C21.0282 17.7733 21.2019 17.6043 21.4081 17.4827C21.4282 17.4708 21.4489 17.4594 21.4902 17.4368L21.4916 17.4361L21.7629 17.2874C22.2142 17.0398 22.4403 16.9158 22.6044 16.7396C22.7497 16.5836 22.8592 16.3989 22.9262 16.1974C23.0015 15.9711 23.0009 15.7172 22.9997 15.2125L22.9988 14.7861C22.9976 14.2789 22.997 14.0255 22.9211 13.7993C22.854 13.5992 22.7444 13.4153 22.6 13.2603C22.4369 13.0853 22.2132 12.9621 21.7662 12.716L21.7649 12.7154Z" stroke="#2D2522" stroke-width="1.5" stroke-linecap="round" stroke-linejoin="round"/>
<path d="M12.4991 15.0001C12.4991 16.6403 13.8427 17.97 15.5002 17.97C17.1577 17.97 18.5014 16.6403 18.5014 15.0001C18.5014 13.3598 17.1577 12.0301 15.5002 12.0301C13.8427 12.0301 12.4991 13.3598 12.4991 15.0001Z" stroke="#2D2522" stroke-width="1.5" stroke-linecap="round" stroke-linejoin="round"/>
</svg>
