<svg width="20" height="20" viewBox="0 0 20 20" fill="none" xmlns="http://www.w3.org/2000/svg">
<g clip-path="url(#clip0_1972_7936)">
<path d="M6 11.5L12 14.5M12 5.5L6 8.5M15 19C13.3431 19 12 17.6569 12 16C12 14.3431 13.3431 13 15 13C16.6569 13 18 14.3431 18 16C18 17.6569 16.6569 19 15 19ZM3 13C1.34315 13 0 11.6569 0 10C0 8.34315 1.34315 7 3 7C4.65685 7 6 8.34315 6 10C6 11.6569 4.65685 13 3 13ZM15 7C13.3431 7 12 5.65685 12 4C12 2.34315 13.3431 1 15 1C16.6569 1 18 2.34315 18 4C18 5.65685 16.6569 7 15 7Z" stroke="#2D2522" stroke-width="1.5" stroke-linecap="round" stroke-linejoin="round"/>
</g>
<defs>
<clipPath id="clip0_1972_7936">
<rect width="20" height="20" fill="white"/>
</clipPath>
</defs>
</svg>
