<svg width="20" height="20" viewBox="0 0 20 20" fill="none" xmlns="http://www.w3.org/2000/svg">
<path d="M10 1C14.9706 1 19 5.02944 19 10C19 14.9706 14.9706 19 10 19C5.02944 19 1 14.9706 1 10C1 5.02944 5.02944 1 10 1Z" fill="#FEB8B4"/>
<path d="M10 1C14.9706 1 19 5.02944 19 10C19 14.9706 14.9706 19 10 19C5.02944 19 1 14.9706 1 10C1 5.02944 5.02944 1 10 1Z" stroke="#FDF0EB" stroke-width="2" stroke-linecap="round" stroke-linejoin="round"/>
<path d="M10.405 14.8914C11.3265 14.4106 13.5 12.9256 13.5 9.61328V7.61218C13.5 7.04842 13.5 6.76612 13.4047 6.55058C13.3208 6.36081 13.1866 6.20663 13.022 6.10993C12.8348 6 12.5901 6 12.1001 6H7.90009C7.41004 6 7.16483 6 6.97766 6.10993C6.81302 6.20663 6.67926 6.36081 6.59537 6.55058C6.5 6.76633 6.5 7.04897 6.5 7.61383V9.61327C6.5 12.9256 8.67341 14.4106 9.59485 14.8914C9.69254 14.9423 9.74162 14.9678 9.85219 14.9896C9.92192 15.0035 10.0785 15.0035 10.1483 14.9896C10.2584 14.9678 10.307 14.9425 10.404 14.8919L10.405 14.8914Z" fill="white" stroke="white" stroke-width="2" stroke-linecap="round" stroke-linejoin="round"/>
</svg>
