<svg width="32" height="32" viewBox="0 0 32 32" fill="none" xmlns="http://www.w3.org/2000/svg">
<path d="M0.75 15.75C0.75 7.46573 7.46573 0.75 15.75 0.75C24.0343 0.75 30.75 7.46573 30.75 15.75C30.75 24.0343 24.0343 30.75 15.75 30.75C7.46573 30.75 0.75 24.0343 0.75 15.75Z" fill="#F6CBBA"/>
<path d="M0.75 15.75C0.75 7.46573 7.46573 0.75 15.75 0.75C24.0343 0.75 30.75 7.46573 30.75 15.75C30.75 24.0343 24.0343 30.75 15.75 30.75C7.46573 30.75 0.75 24.0343 0.75 15.75Z" stroke="white" stroke-width="1.5" stroke-linecap="round" stroke-linejoin="round"/>
<path d="M15.75 9.75C13.8772 11.183 12.7033 11.25 10.75 11.25V17.0175C10.75 19.319 12.5294 19.9195 15.75 21.75C18.9706 19.9195 20.75 19.319 20.75 17.0175C20.75 14.716 20.75 11.25 20.75 11.25C18.7967 11.25 17.6228 11.183 15.75 9.75Z" fill="white"/>
</svg>
