<svg width="20" height="20" viewBox="0 0 20 20" fill="none" xmlns="http://www.w3.org/2000/svg">
<g clip-path="url(#clip0_1972_7920)">
<path d="M12.0172 9.24141L13.0458 12.3272C13.2449 12.9244 13.7135 13.393 14.3107 13.5921L17.3965 14.6207L14.3107 15.6493C13.7135 15.8484 13.2449 16.317 13.0458 16.9142L12.0172 20L10.9886 16.9142C10.7895 16.317 10.3209 15.8484 9.72371 15.6493L6.63791 14.6207L9.72371 13.5921C10.3209 13.393 10.7895 12.9244 10.9886 12.3272L12.0172 9.24141Z" fill="#2D2522" stroke="#2D2522" stroke-linecap="round" stroke-linejoin="round"/>
<path d="M16.7241 0.499983L17.114 1.60283C17.3182 2.18028 17.7757 2.63235 18.3555 2.82961L19.4138 3.18962L18.3452 3.54583C17.748 3.74491 17.2794 4.21353 17.0803 4.81074L16.7241 5.87928L16.3679 4.81072C16.1689 4.21353 15.7002 3.74491 15.1031 3.54583L14.0345 3.18962L15.103 2.83346C15.7002 2.63439 16.1689 2.16576 16.3679 1.56855L16.7241 0.499983Z" fill="#2D2522" stroke="#2D2522" stroke-linecap="round" stroke-linejoin="round"/>
<path d="M4.62074 0.500015L5.66741 2.5934C5.86094 2.98046 6.17479 3.29431 6.56185 3.48784L8.65521 4.53452L6.56184 5.5812C6.17478 5.77473 5.86094 6.08858 5.66741 6.47563L4.62073 8.569L3.57404 6.47563C3.38052 6.08858 3.06667 5.77473 2.67962 5.5812L0.586248 4.53452L2.67962 3.48784C3.06667 3.29431 3.38052 2.98046 3.57404 2.59341L4.62074 0.500015Z" fill="#2D2522" stroke="#2D2522" stroke-linecap="round" stroke-linejoin="round"/>
</g>
<defs>
<clipPath id="clip0_1972_7920">
<rect width="20" height="20" fill="white"/>
</clipPath>
</defs>
</svg>
