<svg width="20" height="20" viewBox="0 0 20 20" fill="none" xmlns="http://www.w3.org/2000/svg">
<path d="M12 8V15M8 8V15M4 4V15.8C4 16.9201 4 17.4798 4.21799 17.9076C4.40973 18.2839 4.71547 18.5905 5.0918 18.7822C5.5192 19 6.07899 19 7.19691 19H12.8031C13.921 19 14.48 19 14.9074 18.7822C15.2837 18.5905 15.5905 18.2839 15.7822 17.9076C16 17.4802 16 16.921 16 15.8031V4M4 4H6M4 4H2M6 4H14M6 4C6 3.06812 6 2.60241 6.15224 2.23486C6.35523 1.74481 6.74432 1.35523 7.23438 1.15224C7.60192 1 8.06812 1 9 1H11C11.9319 1 12.3978 1 12.7654 1.15224C13.2554 1.35523 13.6447 1.74481 13.8477 2.23486C13.9999 2.6024 14 3.06812 14 4M14 4H16M16 4H18" stroke="#2D2522" stroke-width="1.5" stroke-linecap="round" stroke-linejoin="round"/>
</svg>
