<svg width="30" height="30" viewBox="0 0 30 30" fill="none" xmlns="http://www.w3.org/2000/svg">
<path d="M16.5 13.4444V18.8889M13.5 13.4444V18.8889M10.5 10.3333V19.5111C10.5 20.3823 10.5 20.8176 10.6635 21.1504C10.8073 21.443 11.0366 21.6815 11.3188 21.8306C11.6394 22 12.0592 22 12.8977 22H17.1023C17.9408 22 18.36 22 18.6805 21.8306C18.9628 21.6815 19.1929 21.443 19.3367 21.1504C19.5 20.8179 19.5 20.383 19.5 19.5135V10.3333M10.5 10.3333H12M10.5 10.3333H9M12 10.3333H18M12 10.3333C12 9.60854 12 9.24632 12.1142 8.96045C12.2664 8.57929 12.5582 8.27629 12.9258 8.11841C13.2014 8 13.5511 8 14.25 8H15.75C16.4489 8 16.7984 8 17.074 8.11841C17.4416 8.27629 17.7335 8.57929 17.8857 8.96045C17.9999 9.24631 18 9.60854 18 10.3333M18 10.3333H19.5M19.5 10.3333H21" stroke="#2D2522" stroke-width="1.5" stroke-linecap="round" stroke-linejoin="round"/>
</svg>
