<svg width="30" height="30" viewBox="0 0 30 30" fill="none" xmlns="http://www.w3.org/2000/svg">
<path d="M18.8889 22C18.8889 19.8522 17.1478 18.1111 15 18.1111C12.8522 18.1111 11.1111 19.8522 11.1111 22M18.8889 22H19.5135C20.383 22 20.8178 22 21.1502 21.8306C21.4429 21.6815 21.6815 21.4429 21.8306 21.1502C22 20.8178 22 20.383 22 19.5135V10.4865C22 9.617 22 9.1816 21.8306 8.84918C21.6815 8.55648 21.4429 8.31868 21.1502 8.16955C20.8174 8 20.3825 8 19.5113 8H10.489C9.61785 8 9.18193 8 8.84918 8.16955C8.55648 8.31868 8.31868 8.55648 8.16955 8.84918C8 9.18193 8 9.61785 8 10.489V19.5113C8 20.3825 8 20.8174 8.16955 21.1502C8.31868 21.4429 8.55648 21.6815 8.84918 21.8306C9.1816 22 9.617 22 10.4865 22H11.1111M18.8889 22H11.1111M15 15.7778C13.7113 15.7778 12.6667 14.7331 12.6667 13.4444C12.6667 12.1558 13.7113 11.1111 15 11.1111C16.2887 11.1111 17.3333 12.1558 17.3333 13.4444C17.3333 14.7331 16.2887 15.7778 15 15.7778Z" stroke="#2D2522" stroke-width="1.5" stroke-linecap="round" stroke-linejoin="round"/>
</svg>
