<svg width="20" height="20" viewBox="0 0 20 20" fill="none" xmlns="http://www.w3.org/2000/svg">
<path d="M11.7603 6.63514C11.3526 6.55822 10.9312 6.51791 10.5 6.51791C10.0688 6.51791 9.64741 6.55822 9.23969 6.63514M11.7603 6.63514C14.747 7.19858 17 9.72614 17 12.759C17 16.2058 14.0899 19 10.5 19C6.91015 19 4 16.2058 4 12.759C4 9.72614 6.25303 7.19858 9.23969 6.63514M11.7603 6.63514C10.1353 2.61719 14.4194 0.0267079 16.4091 3.92738M9.23969 6.63514C10.1353 4.17716 7.47622 2.16669 4.59091 4.50716M8.51031 14.3189C8.4826 14.8389 8.84175 15.8791 10.5 15.8791C12.1582 15.8791 12.5728 14.8389 12.5728 14.3189M8.51031 10.4182V11.1983M12.5728 11.1983V10.4182" stroke="#2D2522" stroke-width="1.5" stroke-linecap="round" stroke-linejoin="round"/>
</svg>
