<svg width="30" height="30" viewBox="0 0 30 30" fill="none" xmlns="http://www.w3.org/2000/svg">
<path d="M19.0574 20.7029C18.0605 19.5895 16.6121 18.8889 15 18.8889C13.3879 18.8889 11.9394 19.5895 10.9425 20.7029M15 22C11.134 22 8 18.866 8 15C8 11.134 11.134 8 15 8C18.866 8 22 11.134 22 15C22 18.866 18.866 22 15 22ZM15 16.5556C13.7113 16.5556 12.6667 15.5109 12.6667 14.2222C12.6667 12.9336 13.7113 11.8889 15 11.8889C16.2887 11.8889 17.3333 12.9336 17.3333 14.2222C17.3333 15.5109 16.2887 16.5556 15 16.5556Z" stroke="#2D2522" stroke-width="1.5" stroke-linecap="round" stroke-linejoin="round"/>
</svg>
