<svg width="20" height="20" viewBox="0 0 20 20" fill="none" xmlns="http://www.w3.org/2000/svg">
<path d="M15 18C15 16.3431 12.7614 15 10 15C7.23858 15 5 16.3431 5 18M19 15.0004C19 13.7702 17.7659 12.7129 16 12.25M1 15.0004C1 13.7702 2.2341 12.7129 4 12.25M16 8.23611C16.6137 7.68679 17 6.8885 17 6C17 4.34315 15.6569 3 14 3C13.2316 3 12.5308 3.28885 12 3.76389M4 8.23611C3.38625 7.68679 3 6.8885 3 6C3 4.34315 4.34315 3 6 3C6.76835 3 7.46924 3.28885 8 3.76389M10 12C8.34315 12 7 10.6569 7 9C7 7.34315 8.34315 6 10 6C11.6569 6 13 7.34315 13 9C13 10.6569 11.6569 12 10 12Z" stroke="#2D2522" stroke-width="1.5" stroke-linecap="round" stroke-linejoin="round"/>
</svg>
