<svg width="30" height="30" viewBox="0 0 30 30" fill="none" xmlns="http://www.w3.org/2000/svg">
<path d="M18.8889 21C18.8889 19.785 17.1478 18.8 15 18.8C12.8522 18.8 11.1111 19.785 11.1111 21M22 18.8003C22 17.8981 21.0401 17.1228 19.6667 16.7833M8 18.8003C8 17.8981 8.95985 17.1228 10.3333 16.7833M19.6667 13.8398C20.144 13.437 20.4444 12.8516 20.4444 12.2C20.4444 10.985 19.3998 10 18.1111 10C17.5135 10 16.9684 10.2118 16.5556 10.5602M10.3333 13.8398C9.85597 13.437 9.55556 12.8516 9.55556 12.2C9.55556 10.985 10.6002 10 11.8889 10C12.4865 10 13.0316 10.2118 13.4444 10.5602M15 16.6C13.7113 16.6 12.6667 15.615 12.6667 14.4C12.6667 13.185 13.7113 12.2 15 12.2C16.2887 12.2 17.3333 13.185 17.3333 14.4C17.3333 15.615 16.2887 16.6 15 16.6Z" stroke="#2D2522" stroke-width="1.5" stroke-linecap="round" stroke-linejoin="round"/>
</svg>
