<svg width="20" height="20" viewBox="0 0 20 20" fill="none" xmlns="http://www.w3.org/2000/svg">
<path d="M4 16C4.06366 16 4.12926 16 4.19691 16H10M4 16C3.01173 15.9992 2.49334 15.9868 2.0918 15.7822C1.71547 15.5905 1.40973 15.2837 1.21799 14.9074C1 14.4796 1 13.9203 1 12.8002V7.2002C1 6.08009 1 5.51962 1.21799 5.0918C1.40973 4.71547 1.71547 4.40973 2.0918 4.21799C2.51962 4 3.08009 4 4.2002 4H15.8002C16.9203 4 17.4796 4 17.9074 4.21799C18.2837 4.40973 18.5905 4.71547 18.7822 5.0918C19 5.5192 19 6.07899 19 7.19691V12.8031C19 13.921 19 14.48 18.7822 14.9074C18.5905 15.2837 18.2837 15.5905 17.9074 15.7822C17.48 16 16.921 16 15.8031 16H10M4 16C4.00004 14.8954 5.34317 14 7 14C8.65685 14 10 14.8954 10 16M4 16C4 16 4 15.9999 4 16ZM16 12H12M16 9H13M7 11C5.89543 11 5 10.1046 5 9C5 7.89543 5.89543 7 7 7C8.10457 7 9 7.89543 9 9C9 10.1046 8.10457 11 7 11Z" stroke="#2D2522" stroke-width="1.5" stroke-linecap="round" stroke-linejoin="round"/>
</svg>
