<svg width="20" height="20" viewBox="0 0 20 20" fill="none" xmlns="http://www.w3.org/2000/svg">
<path d="M6.34277 12.5898C6.80861 12.0902 7.37187 11.6914 7.9978 11.418C8.62372 11.1445 9.29954 11.0024 9.98259 11C10.6656 10.9976 11.3419 11.1353 11.9697 11.4044C12.5975 11.6734 13.1637 12.0682 13.633 12.5645M4.14941 9.54393C4.89312 8.7464 5.79203 8.10934 6.79091 7.67188C7.7898 7.23441 8.86778 7.00575 9.95825 7M1.22363 6.81649C2.34177 5.61743 3.69376 4.66021 5.19618 4.00391C6.69859 3.3476 8.31978 3.00558 9.95928 3M14 6.99997L16 4.99998M16 4.99998L18 3M16 4.99998L14 3M16 4.99998L18 6.99997M10 17C9.44772 17 9 16.5523 9 16C9 15.4477 9.44772 15 10 15C10.5523 15 11 15.4477 11 16C11 16.5523 10.5523 17 10 17Z" stroke="#2D2522" stroke-width="1.5" stroke-linecap="round" stroke-linejoin="round"/>
</svg>
