<svg width="20" height="20" viewBox="0 0 20 20" fill="none" xmlns="http://www.w3.org/2000/svg">
<path d="M6.34277 12.5899C6.80861 12.0903 7.37187 11.6915 7.9978 11.418C8.62372 11.1446 9.29954 11.0025 9.98259 11.0001C10.6656 10.9977 11.3419 11.1353 11.9697 11.4044C12.5975 11.6735 13.1637 12.0683 13.633 12.5646M4.14941 9.54393C4.89476 8.74465 5.79597 8.10655 6.79745 7.66902C7.79893 7.23148 8.87926 7.00389 9.97214 7.00007C11.065 6.99626 12.1466 7.21651 13.1511 7.64704C14.1556 8.07757 15.0617 8.70942 15.8127 9.50348M1.22363 6.81635C2.34165 5.61742 3.69347 4.66028 5.19569 4.00398C6.69791 3.34768 8.31792 3.0058 9.95724 3.00007C11.5966 2.99435 13.2208 3.32472 14.7276 3.97052C16.2344 4.61632 17.5931 5.56458 18.7195 6.75568M10 17.0001C9.44772 17.0001 9 16.5524 9 16.0001C9 15.4478 9.44772 15.0001 10 15.0001C10.5523 15.0001 11 15.4478 11 16.0001C11 16.5524 10.5523 17.0001 10 17.0001Z" stroke="#2D2522" stroke-width="1.5" stroke-linecap="round" stroke-linejoin="round"/>
</svg>
