<svg width="40" height="40" viewBox="0 0 40 40" fill="none" xmlns="http://www.w3.org/2000/svg">
<path d="M16.9214 10C16.9214 9.58579 16.5856 9.25 16.1714 9.25C15.7572 9.25 15.4214 9.58579 15.4214 10H16.1714H16.9214ZM15.4214 29.2C15.4214 29.6142 15.7572 29.95 16.1714 29.95C16.5856 29.95 16.9214 29.6142 16.9214 29.2H16.1714H15.4214ZM12.7429 14.8643C13.1571 14.8643 13.4929 14.5285 13.4929 14.1143C13.4929 13.7001 13.1571 13.3643 12.7429 13.3643V14.1143V14.8643ZM10 13.3643C9.58579 13.3643 9.25 13.7001 9.25 14.1143C9.25 14.5285 9.58579 14.8643 10 14.8643V14.1143V13.3643ZM12.7429 18.9786C13.1571 18.9786 13.4929 18.6428 13.4929 18.2286C13.4929 17.8144 13.1571 17.4786 12.7429 17.4786V18.2286V18.9786ZM10 17.4786C9.58579 17.4786 9.25 17.8144 9.25 18.2286C9.25 18.6428 9.58579 18.9786 10 18.9786V18.2286V17.4786ZM12.7429 23.0929C13.1571 23.0929 13.4929 22.7571 13.4929 22.3429C13.4929 21.9286 13.1571 21.5929 12.7429 21.5929V22.3429V23.0929ZM10 21.5929C9.58579 21.5929 9.25 21.9286 9.25 22.3429C9.25 22.7571 9.58579 23.0929 10 23.0929V22.3429V21.5929ZM25.5071 23.2143C25.5071 23.6285 25.8429 23.9643 26.2571 23.9643C26.6714 23.9643 27.0071 23.6285 27.0071 23.2143H26.2571H25.5071ZM18.5071 23.2143C18.5071 23.6285 18.8429 23.9643 19.2571 23.9643C19.6714 23.9643 20.0071 23.6285 20.0071 23.2143H19.2571H18.5071ZM16.1714 10H15.4214V29.2H16.1714H16.9214V10H16.1714ZM12.7429 14.1143V13.3643H10V14.1143V14.8643H12.7429V14.1143ZM12.7429 18.2286V17.4786H10V18.2286V18.9786H12.7429V18.2286ZM12.7429 22.3429V21.5929H10V22.3429V23.0929H12.7429V22.3429ZM14.1143 10V10.75H26.4571V10V9.25H14.1143V10ZM29.2 12.7429H28.45V26.4571H29.2H29.95V12.7429H29.2ZM26.4571 29.2V28.45H14.1143V29.2V29.95H26.4571V29.2ZM11.3714 26.4571H12.1214V12.7429H11.3714H10.6214V26.4571H11.3714ZM14.1143 29.2V28.45C13.0137 28.45 12.1214 27.5578 12.1214 26.4571H11.3714H10.6214C10.6214 28.3862 12.1852 29.95 14.1143 29.95V29.2ZM29.2 26.4571H28.45C28.45 27.5578 27.5578 28.45 26.4571 28.45V29.2V29.95C28.3862 29.95 29.95 28.3862 29.95 26.4571H29.2ZM26.4571 10V10.75C27.5578 10.75 28.45 11.6422 28.45 12.7429H29.2H29.95C29.95 10.8138 28.3862 9.25 26.4571 9.25V10ZM14.1143 10V9.25C12.1852 9.25 10.6214 10.8138 10.6214 12.7429H11.3714H12.1214C12.1214 11.6422 13.0137 10.75 14.1143 10.75V10ZM22.7571 17.5V16.75C22.0258 16.75 21.4071 16.1408 21.4071 15.3571H20.6571H19.9071C19.9071 16.9405 21.1689 18.25 22.7571 18.25V17.5ZM20.6571 15.3571H21.4071C21.4071 14.5735 22.0258 13.9643 22.7571 13.9643V13.2143V12.4643C21.1689 12.4643 19.9071 13.7738 19.9071 15.3571H20.6571ZM22.7571 13.2143V13.9643C23.4885 13.9643 24.1071 14.5735 24.1071 15.3571H24.8571H25.6071C25.6071 13.7738 24.3454 12.4643 22.7571 12.4643V13.2143ZM24.8571 15.3571H24.1071C24.1071 16.1408 23.4885 16.75 22.7571 16.75V17.5V18.25C24.3454 18.25 25.6071 16.9405 25.6071 15.3571H24.8571ZM26.2571 23.2143H27.0071C27.0071 20.842 25.1186 18.8929 22.7571 18.8929V19.6429V20.3929C24.2617 20.3929 25.5071 21.6417 25.5071 23.2143H26.2571ZM22.7571 19.6429V18.8929C20.3957 18.8929 18.5071 20.842 18.5071 23.2143H19.2571H20.0071C20.0071 21.6417 21.2526 20.3929 22.7571 20.3929V19.6429Z" fill="#2D2522"/>
</svg>
