<svg width="40" height="40" viewBox="0 0 40 40" fill="none" xmlns="http://www.w3.org/2000/svg">
<path d="M18 24H13V29M22 16H27V11M12.583 17.0034C13.1437 15.6157 14.0824 14.413 15.2926 13.5322C16.5027 12.6514 17.9369 12.1275 19.4298 12.0205C20.9227 11.9135 22.4147 12.2274 23.7381 12.9266C25.0615 13.6258 26.1612 14.6825 26.9141 15.9761M27.4176 22.9971C26.8569 24.3848 25.9181 25.5874 24.708 26.4682C23.4979 27.3491 22.0652 27.8723 20.5723 27.9793C19.0794 28.0863 17.5861 27.7725 16.2627 27.0732C14.9393 26.374 13.8388 25.3175 13.0859 24.0239" stroke="#2D2522" stroke-width="1.5" stroke-linecap="round" stroke-linejoin="round"/>
</svg>
