<svg width="40" height="40" viewBox="0 0 40 40" fill="none" xmlns="http://www.w3.org/2000/svg">
<path d="M23 25V26C23 27.6569 21.6569 29 20 29C18.3431 29 17 27.6569 17 26V25.0001M23 25L17 25.0001M23 25H27C27.5523 25 28 24.5523 28 24V23.4141C28 23.1489 27.8945 22.8946 27.707 22.707L27.1963 22.1963C27.0706 22.0706 27 21.9 27 21.7222V18C27 17.8236 26.9936 17.6485 26.9805 17.4761M17 25.0001L13 25.0001C12.4477 25.0001 12 24.5521 12 23.9998V23.4141C12 23.1489 12.1054 22.8949 12.293 22.7073L12.8037 22.1958C12.9294 22.0701 13 21.9002 13 21.7224V18C13 14.134 16.134 11 20 11C20.7116 11 21.3984 11.1062 22.0454 11.3036L22.0468 11.304" stroke="#2D2522" stroke-width="1.5" stroke-linecap="round" stroke-linejoin="round"/>
<circle cx="27" cy="13" r="4" fill="#F67769" stroke="white" stroke-width="2"/>
</svg>
