<svg width="40" height="40" viewBox="0 0 40 40" fill="none" xmlns="http://www.w3.org/2000/svg">
<path d="M17 25V26C17 27.6569 18.3431 29 20 29C21.6569 29 23 27.6569 23 26V25M17 25L23 25M17 25L13.0002 25.0002C12.4874 25.0002 12.0645 24.6141 12.0067 24.1168L12 23.9998V23.4141C12 23.1489 12.1054 22.8949 12.293 22.7073L12.8037 22.1963C12.9294 22.0706 13 21.9003 13 21.7225V17.9999C13 16.1582 13.7112 14.4827 14.8739 13.2329M23 25L26.9999 25M13 11L29 27M26.9995 20.999L27.0004 18C27.0004 14.134 23.8665 11 20.0005 11L19.7598 11.0041C18.9548 11.0313 18.1845 11.194 17.4707 11.4708" stroke="#2D2522" stroke-width="1.5" stroke-linecap="round" stroke-linejoin="round"/>
</svg>
