<svg width="40" height="40" viewBox="0 0 40 40" fill="none" xmlns="http://www.w3.org/2000/svg">
<path d="M16 12H15.2002C14.0801 12 13.5196 12 13.0918 12.218C12.7155 12.4097 12.4097 12.7155 12.218 13.0918C12 13.5196 12 14.0801 12 15.2002V16M16 12H24M16 12V10M24 12H24.8002C25.9203 12 26.4796 12 26.9074 12.218C27.2837 12.4097 27.5905 12.7155 27.7822 13.0918C28 13.5192 28 14.079 28 15.1969V16M24 12V10M12 16V24.8002C12 25.9203 12 26.4801 12.218 26.9079C12.4097 27.2842 12.7155 27.5905 13.0918 27.7822C13.5192 28 14.079 28 15.1969 28H24.8031C25.921 28 26.48 28 26.9074 27.7822C27.2837 27.5905 27.5905 27.2842 27.7822 26.9079C28 26.4805 28 25.9215 28 24.8036V16M12 16H28M24 24H24.002L24.002 24.002L24 24.002V24ZM20 24H20.002L20.002 24.002L20 24.002V24ZM16 24H16.002L16.002 24.002L16 24.002V24ZM24.002 20V20.002L24 20.002V20H24.002ZM20 20H20.002L20.002 20.002L20 20.002V20ZM16 20H16.002L16.002 20.002L16 20.002V20Z" stroke="#2D2522" stroke-width="1.5" stroke-linecap="round" stroke-linejoin="round"/>
</svg>
