<svg width="40" height="40" viewBox="0 0 40 40" fill="none" xmlns="http://www.w3.org/2000/svg">
<path d="M15.5098 27.8018C16.8313 28.5639 18.3645 29 19.9996 29C24.9702 29 29 24.9706 29 20C29 15.0294 24.9706 11 20 11C15.0294 11 11 15.0294 11 20C11 21.6351 11.436 23.1684 12.1982 24.4899L12.2011 24.495C12.2745 24.6221 12.3115 24.6863 12.3282 24.7469C12.344 24.804 12.3484 24.8554 12.3444 24.9146C12.34 24.9781 12.3186 25.044 12.2747 25.1758L11.5059 27.4823L11.5049 27.4853C11.3427 27.9719 11.2616 28.2152 11.3194 28.3774C11.3698 28.5187 11.4817 28.6303 11.623 28.6807C11.7848 28.7384 12.027 28.6577 12.5115 28.4962L12.5176 28.4939L14.824 27.7251C14.9554 27.6813 15.0221 27.6591 15.0856 27.6548C15.1448 27.6507 15.1958 27.6561 15.2529 27.6719C15.3137 27.6887 15.3778 27.7257 15.5056 27.7994L15.5098 27.8018Z" stroke="#2D2522" stroke-width="1.5" stroke-linecap="round" stroke-linejoin="round"/>
</svg>
