<svg width="40" height="40" viewBox="0 0 40 40" fill="none" xmlns="http://www.w3.org/2000/svg">
<path d="M16 20H24M12 24.8002V15.2002C12 14.0801 12 13.5196 12.218 13.0918C12.4097 12.7155 12.7155 12.4097 13.0918 12.218C13.5196 12 14.0801 12 15.2002 12H24.8002C25.9203 12 26.4796 12 26.9074 12.218C27.2837 12.4097 27.5905 12.7155 27.7822 13.0918C28 13.5192 28 14.079 28 15.1969V24.8036C28 25.9215 28 26.4805 27.7822 26.9079C27.5905 27.2842 27.2837 27.5905 26.9074 27.7822C26.48 28 25.921 28 24.8031 28H15.1969C14.079 28 13.5192 28 13.0918 27.7822C12.7155 27.5905 12.4097 27.2842 12.218 26.9079C12 26.4801 12 25.9203 12 24.8002Z" stroke="#2D2522" stroke-width="1.5" stroke-linecap="round" stroke-linejoin="round"/>
</svg>
