<svg width="40" height="40" viewBox="0 0 40 40" fill="none" xmlns="http://www.w3.org/2000/svg">
<path d="M17.1465 17.0736C17.3173 16.5473 17.6302 16.079 18.0508 15.7195C18.4714 15.36 18.9838 15.1238 19.5303 15.0371C20.0768 14.9504 20.6362 15.0164 21.1475 15.228C21.6587 15.4397 22.1014 15.7887 22.4268 16.2363C22.7521 16.6839 22.9469 17.2126 22.9904 17.7642C23.0339 18.3158 22.9238 18.8688 22.6727 19.3618C22.4215 19.8548 22.0394 20.2685 21.5676 20.5576C21.0958 20.8467 20.5533 20.9998 20 20.9998V22.0002M20 29C15.0294 29 11 24.9706 11 20C11 15.0294 15.0294 11 20 11C24.9706 11 29 15.0294 29 20C29 24.9706 24.9706 29 20 29ZM20.0498 25V25.1L19.9502 25.1002V25H20.0498Z" stroke="#2D2522" stroke-width="1.5" stroke-linecap="round" stroke-linejoin="round"/>
</svg>
