<svg width="40" height="40" viewBox="0 0 40 40" fill="none" xmlns="http://www.w3.org/2000/svg">
<path d="M24.9999 24.9999L20 20M20 20L15 15M20 20L25 15M20 20L15 25" stroke="#E29578" stroke-width="1.5" stroke-linecap="round" stroke-linejoin="round"/>
<circle cx="20" cy="20" r="14.25" stroke="#E5E5E5" stroke-width="1.5"/>
<path d="M33.6298 16.8016C34.2989 19.6533 34.0568 22.6431 32.9375 25.35C31.8181 28.0568 29.8779 30.3444 27.39 31.8906C24.9022 33.4368 21.992 34.1638 19.0693 33.969C16.1466 33.7743 13.3586 32.6678 11.0979 30.8052C8.83713 28.9426 7.21754 26.4179 6.46716 23.5864C5.71679 20.755 5.87342 17.7595 6.91501 15.0217C7.9566 12.284 9.83067 9.94193 12.2733 8.3253C14.716 6.70867 17.6042 5.89892 20.5313 6.01008" stroke="#E29578" stroke-width="1.5" stroke-linecap="round"/>
</svg>
