<svg width="40" height="40" viewBox="0 0 40 40" fill="none" xmlns="http://www.w3.org/2000/svg">
<path d="M26 26L20 20M20 20L14 14M20 20L26 14M20 20L14 26" stroke="#2D2522" stroke-width="1.5" stroke-linecap="round" stroke-linejoin="round"/>
<circle cx="20" cy="20" r="18.25" stroke="#FBE5C8" stroke-width="1.5"/>
<path d="M37.524 15.8877C38.3844 19.5542 38.0731 23.3983 36.6339 26.8785C35.1947 30.3588 32.7002 33.3 29.5015 35.288C26.3028 37.2759 22.5612 38.2105 18.8034 37.9602C15.0457 37.7098 11.4611 36.2871 8.5544 33.8924C5.64774 31.4977 3.56541 28.2515 2.60064 24.6111C1.63587 20.9707 1.83726 17.1193 3.17644 13.5994C4.51562 10.0794 6.92514 7.06819 10.0657 4.98967C13.2063 2.91114 16.9197 1.87004 20.6831 2.01297" stroke="#939393" stroke-width="1.5" stroke-linecap="round"/>
</svg>
