<svg width="40" height="40" viewBox="0 0 40 40" fill="none" xmlns="http://www.w3.org/2000/svg">
<path d="M12 28H18.9433M18.9433 28H19.0567M18.9433 28C18.9622 28.0002 18.9811 28.0002 19 28.0002C19.0189 28.0002 19.0378 28.0002 19.0567 28M18.9433 28C15.1034 27.9695 12 24.8468 12 20.9998V16.9229C12 16.4131 12.4131 16 12.9229 16H25.0767C25.5865 16 26 16.4131 26 16.9229V17M19.0567 28H26M19.0567 28C22.8966 27.9695 26 24.8468 26 20.9998M26 17H27.5C28.8807 17 30 18.1193 30 19.5C30 20.8807 28.8807 22 27.5 22H26V20.9998M26 17V20.9998M23 11L22 13M20 11L19 13M17 11L16 13" stroke="#2D2522" stroke-width="1.5" stroke-linecap="round" stroke-linejoin="round"/>
</svg>
