<svg width="40" height="40" viewBox="0 0 40 40" fill="none" xmlns="http://www.w3.org/2000/svg">
<path d="M17 17V14.2002C17 13.0801 17 12.5196 17.218 12.0918C17.4097 11.7155 17.7155 11.4097 18.0918 11.218C18.5196 11 19.0801 11 20.2002 11H25.8002C26.9203 11 27.4801 11 27.9079 11.218C28.2842 11.4097 28.5905 11.7155 28.7822 12.0918C29.0002 12.5196 29.0002 13.0797 29.0002 14.1998V19.7998C29.0002 20.9199 29.0002 21.48 28.7822 21.9078C28.5905 22.2841 28.2839 22.5905 27.9076 22.7822C27.4802 23 26.921 23 25.8031 23H23M17 17H14.2002C13.0801 17 12.5196 17 12.0918 17.218C11.7155 17.4097 11.4097 17.7155 11.218 18.0918C11 18.5196 11 19.0801 11 20.2002V25.8002C11 26.9203 11 27.4801 11.218 27.9079C11.4097 28.2842 11.7155 28.5905 12.0918 28.7822C12.5192 29 13.079 29 14.1969 29H19.8036C20.9215 29 21.4805 29 21.9079 28.7822C22.2842 28.5905 22.5905 28.2839 22.7822 27.9076C23 27.4802 23 26.921 23 25.8031V23M17 17H19.8002C20.9203 17 21.4801 17 21.9079 17.218C22.2842 17.4097 22.5905 17.7155 22.7822 18.0918C23 18.5192 23 19.079 23 20.1969L23 23" stroke="#2D2522" stroke-width="1.5" stroke-linecap="round" stroke-linejoin="round"/>
</svg>
