<svg width="40" height="40" viewBox="0 0 40 40" fill="none" xmlns="http://www.w3.org/2000/svg">
<path d="M20 16.0001L12 24.0001V28.0001L16 28.0001L24 20.0001M20 16.0001L22.8686 13.1315L22.8704 13.1298C23.2652 12.7349 23.463 12.5371 23.691 12.463C23.8919 12.3977 24.1082 12.3977 24.3091 12.463C24.5369 12.537 24.7345 12.7346 25.1288 13.1289L26.8686 14.8687C27.2646 15.2647 27.4627 15.4628 27.5369 15.6912C27.6022 15.892 27.6021 16.1084 27.5369 16.3092C27.4628 16.5374 27.265 16.7352 26.8695 17.1306L26.8686 17.1315L24 20.0001M20 16.0001L24 20.0001" stroke="#2D2522" stroke-width="1.5" stroke-linecap="round" stroke-linejoin="round"/>
</svg>
