<svg width="40" height="40" viewBox="0 0 40 40" fill="none" xmlns="http://www.w3.org/2000/svg">
<path d="M20 13.5V16M20 13.5C20 12.1193 21.1193 11 22.5 11C23.8807 11 25 12.1193 25 13.5C25 14.8807 23.8807 16 22.5 16M20 13.5C20 12.1193 18.8807 11 17.5 11C16.1193 11 15 12.1193 15 13.5C15 14.8807 16.1193 16 17.5 16M20 16H22.5M20 16H17.5M20 16V22M22.5 16H25.8002C26.9203 16 27.4796 16 27.9074 16.218C28.2837 16.4097 28.5905 16.7155 28.7822 17.0918C29 17.5192 29 18.079 29 19.1969V22M17.5 16H14.2002C13.0801 16 12.5196 16 12.0918 16.218C11.7155 16.4097 11.4097 16.7155 11.218 17.0918C11 17.5196 11 18.0801 11 19.2002V22M11 22V24.8002C11 25.9203 11 26.4801 11.218 26.9079C11.4097 27.2842 11.7155 27.5905 12.0918 27.7822C12.5192 28 13.079 28 14.1969 28H20M11 22H20M20 22V28M20 22H29M20 28H25.8031C26.921 28 27.48 28 27.9074 27.7822C28.2837 27.5905 28.5905 27.2842 28.7822 26.9079C29 26.4805 29 25.9215 29 24.8036V22" stroke="#2D2522" stroke-width="1.5" stroke-linecap="round" stroke-linejoin="round"/>
</svg>
