<svg width="42" height="42" viewBox="0 0 42 42" fill="none" xmlns="http://www.w3.org/2000/svg">
<path d="M0.75 20.75C0.75 9.70431 9.70431 0.75 20.75 0.75C31.7957 0.75 40.75 9.70431 40.75 20.75C40.75 31.7957 31.7957 40.75 20.75 40.75C9.70431 40.75 0.75 31.7957 0.75 20.75Z" fill="#F6CBBA"/>
<path d="M0.75 20.75C0.75 9.70431 9.70431 0.75 20.75 0.75C31.7957 0.75 40.75 9.70431 40.75 20.75C40.75 31.7957 31.7957 40.75 20.75 40.75C9.70431 40.75 0.75 31.7957 0.75 20.75Z" stroke="white" stroke-width="1.5" stroke-linecap="round" stroke-linejoin="round"/>
<path d="M11.75 20.75H20.75M20.75 20.75H29.75M20.75 20.75V29.75M20.75 20.75V11.75" stroke="white" stroke-width="2" stroke-linejoin="round"/>
</svg>
