<svg width="40" height="40" viewBox="0 0 40 40" fill="none" xmlns="http://www.w3.org/2000/svg">
<path d="M11.0001 26.0001C11 25.9355 11 25.8689 11 25.8002V14.2002C11 13.0801 11 12.5196 11.218 12.0918C11.4097 11.7155 11.7155 11.4097 12.0918 11.218C12.5196 11 13.0801 11 14.2002 11H25.8002C26.9203 11 27.4801 11 27.9079 11.218C28.2842 11.4097 28.5905 11.7155 28.7822 12.0918C29 12.5192 29 13.079 29 14.1969V25.8031C29 26.2881 29 26.6679 28.9822 26.9774M11.0001 26.0001C11.0008 26.9884 11.0134 27.5058 11.218 27.9074C11.4097 28.2837 11.7155 28.5905 12.0918 28.7822C12.5192 29 13.079 29 14.1969 29H25.8036C26.9215 29 27.4805 29 27.9079 28.7822C28.2842 28.5905 28.5905 28.2837 28.7822 27.9074C28.9055 27.6654 28.959 27.3813 28.9822 26.9774M11.0001 26.0001L15.768 20.4375L15.7694 20.436C16.1923 19.9426 16.4041 19.6955 16.6553 19.6064C16.8759 19.5282 17.1169 19.53 17.3364 19.6113C17.5866 19.704 17.7951 19.9539 18.2119 20.4541L20.8831 23.6595C21.269 24.1226 21.463 24.3554 21.6986 24.4489C21.9065 24.5313 22.1357 24.5406 22.3501 24.4773C22.5942 24.4053 22.8091 24.1904 23.2388 23.7607L23.7358 23.2637C24.1733 22.8262 24.3921 22.6076 24.6397 22.5361C24.8571 22.4734 25.0896 22.4869 25.2988 22.5732C25.537 22.6716 25.7302 22.9124 26.1167 23.3955L28.9822 26.9774M28.9822 26.9774L29 26.9996M23 17C22.4477 17 22 16.5523 22 16C22 15.4477 22.4477 15 23 15C23.5523 15 24 15.4477 24 16C24 16.5523 23.5523 17 23 17Z" stroke="#2D2522" stroke-width="1.5" stroke-linecap="round" stroke-linejoin="round"/>
</svg>
