<svg width="40" height="40" viewBox="0 0 40 40" fill="none" xmlns="http://www.w3.org/2000/svg">
<path d="M22.2629 28.344L28.344 22.2629C29.1361 21.4709 29.532 21.0746 29.6803 20.6179C29.8109 20.2162 29.8109 19.7844 29.6803 19.3827C29.532 18.926 29.1361 18.5291 28.344 17.7371L22.2616 11.6546C21.4704 10.8635 21.0748 10.4679 20.6184 10.3196C20.2167 10.1891 19.7839 10.1891 19.3822 10.3196C18.9257 10.4679 18.529 10.8646 17.7376 11.656L11.6565 17.7371L11.656 17.738C10.8643 18.5297 10.4679 18.9261 10.3196 19.3827C10.1891 19.7844 10.1891 20.2162 10.3196 20.6179C10.4679 21.0743 10.864 21.4704 11.6551 22.2616L17.7414 28.3478C18.5309 29.1373 18.9262 29.5327 19.3822 29.6808C19.7839 29.8113 20.2167 29.8113 20.6184 29.6808C21.0749 29.5325 21.4706 29.1368 22.2621 28.3453L22.2629 28.344Z" stroke="#2D2522" stroke-width="1.5" stroke-linecap="round" stroke-linejoin="round"/>
</svg>
