<svg width="40" height="40" viewBox="0 0 40 40" fill="none" xmlns="http://www.w3.org/2000/svg">
<path d="M27.2933 17.9514L24.96 15.1514C24.6073 14.7281 24.43 14.5164 24.2139 14.3643C24.0223 14.2295 23.8084 14.1295 23.5822 14.0687C23.327 14 23.0523 14 22.5014 14H15.2002C14.0801 14 13.5196 14 13.0918 14.218C12.7155 14.4097 12.4097 14.7155 12.218 15.0918C12 15.5196 12 16.0801 12 17.2002V22.8002C12 23.9203 12 24.4801 12.218 24.9079C12.4097 25.2842 12.7155 25.5905 13.0918 25.7822C13.5192 26 14.079 26 15.1969 26H22.5014C23.0523 26 23.327 25.9998 23.5822 25.9312C23.8084 25.8703 24.0223 25.7702 24.2139 25.6354C24.43 25.4833 24.6073 25.2721 24.96 24.8488L27.2933 22.0488C27.9006 21.32 28.2036 20.9556 28.3197 20.5488C28.422 20.1902 28.422 19.8095 28.3197 19.4509C28.2036 19.0441 27.9006 18.6801 27.2933 17.9514Z" stroke="#2D2522" stroke-width="1.5" stroke-linecap="round" stroke-linejoin="round"/>
</svg>
