<svg width="40" height="40" viewBox="0 0 40 40" fill="none" xmlns="http://www.w3.org/2000/svg">
<path d="M13 22C13 22.5523 13.4477 23 14 23C14.5523 23 15 22.5523 15 22C15 21.4477 14.5523 21 14 21C13.4477 21 13 21.4477 13 22Z" stroke="#2D2522" stroke-width="1.5" stroke-linecap="round" stroke-linejoin="round"/>
<path d="M19 20C19 20.5523 19.4477 21 20 21C20.5523 21 21 20.5523 21 20C21 19.4477 20.5523 19 20 19C19.4477 19 19 19.4477 19 20Z" stroke="#2D2522" stroke-width="1.5" stroke-linecap="round" stroke-linejoin="round"/>
<path d="M25 18C25 18.5523 25.4477 19 26 19C26.5523 19 27 18.5523 27 18C27 17.4477 26.5523 17 26 17C25.4477 17 25 17.4477 25 18Z" stroke="#2D2522" stroke-width="1.5" stroke-linecap="round" stroke-linejoin="round"/>
</svg>
