<svg width="40" height="40" viewBox="0 0 40 40" fill="none" xmlns="http://www.w3.org/2000/svg">
<path d="M19.2348 10.3739C18.8672 10.5262 18.5377 10.8557 17.8788 11.5146C17.22 12.1733 16.8904 12.503 16.7382 12.8705C16.5352 13.3605 16.5352 13.9112 16.7382 14.4013C16.8904 14.7688 17.2199 15.0983 17.8788 15.7572C18.5374 16.4158 18.8673 16.7457 19.2347 16.8979C19.7248 17.1009 20.2755 17.1009 20.7655 16.8979C21.1331 16.7456 21.4625 16.4162 22.1215 15.7572C22.7804 15.0983 23.1089 14.7688 23.2612 14.4013C23.4641 13.9112 23.4641 13.3605 23.2612 12.8705C23.1089 12.5029 22.7804 12.1735 22.1215 11.5146C21.4625 10.8556 21.1331 10.5262 20.7655 10.3739C20.2755 10.1709 19.7248 10.1709 19.2348 10.3739Z" stroke="#2D2522" stroke-width="1.5" stroke-linecap="round" stroke-linejoin="round"/>
<path d="M12.8705 16.7377C12.503 16.8899 12.1735 17.2194 11.5145 17.8783C10.8558 18.5371 10.5261 18.8668 10.3739 19.2342C10.1709 19.7243 10.1709 20.275 10.3739 20.765C10.5262 21.1326 10.8556 21.4621 11.5146 22.121C12.1731 22.7796 12.503 23.1094 12.8705 23.2616C13.3605 23.4646 13.9112 23.4646 14.4013 23.2616C14.7688 23.1094 15.0983 22.7799 15.7572 22.121C16.4162 21.4621 16.7447 21.1326 16.8969 20.765C17.0999 20.275 17.0999 19.7243 16.8969 19.2342C16.7447 18.8667 16.4162 18.5373 15.7572 17.8783C15.0983 17.2194 14.7688 16.8899 14.4013 16.7377C13.9112 16.5347 13.3606 16.5347 12.8705 16.7377Z" stroke="#2D2522" stroke-width="1.5" stroke-linecap="round" stroke-linejoin="round"/>
<path d="M24.2431 17.8783C23.5843 18.5371 23.2547 18.8667 23.1024 19.2342C22.8994 19.7243 22.8994 20.275 23.1024 20.765C23.2547 21.1326 23.5842 21.462 24.2431 22.121C24.9016 22.7795 25.2316 23.1094 25.599 23.2616C26.089 23.4646 26.6397 23.4646 27.1298 23.2616C27.4973 23.1094 27.8268 22.7799 28.4857 22.121C29.1447 21.4621 29.4732 21.1326 29.6254 20.765C29.8284 20.275 29.8284 19.7243 29.6254 19.2342C29.4732 18.8667 29.1447 18.5373 28.4857 17.8783C27.8268 17.2194 27.4973 16.8899 27.1298 16.7377C26.6397 16.5347 26.0891 16.5347 25.599 16.7377C25.2315 16.8899 24.902 17.2194 24.2431 17.8783Z" stroke="#2D2522" stroke-width="1.5" stroke-linecap="round" stroke-linejoin="round"/>
<path d="M19.2348 23.1019C18.8672 23.2542 18.5377 23.5837 17.8788 24.2426C17.22 24.9014 16.8904 25.231 16.7382 25.5985C16.5352 26.0886 16.5352 26.6392 16.7382 27.1293C16.8904 27.4968 17.2199 27.8263 17.8788 28.4852C18.5374 29.1438 18.8673 29.4737 19.2347 29.6259C19.7248 29.8289 20.2755 29.8289 20.7655 29.6259C21.1331 29.4737 21.4625 29.1442 22.1215 28.4852C22.7804 27.8263 23.1089 27.4968 23.2612 27.1293C23.4641 26.6392 23.4641 26.0886 23.2612 25.5985C23.1089 25.231 22.7804 24.9015 22.1215 24.2426C21.4625 23.5837 21.1331 23.2542 20.7655 23.1019C20.2755 22.899 19.7248 22.899 19.2348 23.1019Z" stroke="#2D2522" stroke-width="1.5" stroke-linecap="round" stroke-linejoin="round"/>
</svg>
