<svg width="40" height="40" viewBox="0 0 40 40" fill="none" xmlns="http://www.w3.org/2000/svg">
<path d="M17.5025 12.2572C17.1987 11.4979 16.4633 11 15.6455 11H12.8947C11.8483 11 11 11.8481 11 12.8945C11 21.7892 18.2108 29 27.1055 29C28.1519 29 29 28.1516 29 27.1052L29.0005 24.354C29.0005 23.5361 28.5027 22.8009 27.7434 22.4971L25.1069 21.4429C24.4249 21.1701 23.6483 21.2929 23.0839 21.7632L22.4035 22.3307C21.6089 22.9929 20.4396 22.9402 19.7082 22.2088L17.7922 20.2911C17.0608 19.5596 17.0067 18.3913 17.6689 17.5967L18.2363 16.9163C18.7066 16.352 18.8305 15.5752 18.5577 14.8931L17.5025 12.2572Z" stroke="#2D2522" stroke-width="1.5" stroke-linecap="round" stroke-linejoin="round"/>
</svg>
