<svg width="40" height="40" viewBox="0 0 40 40" fill="none" xmlns="http://www.w3.org/2000/svg">
<path d="M28.3499 16.9229L27.9837 16.7192C27.9269 16.6876 27.8989 16.6717 27.8714 16.6552C27.5983 16.4917 27.3682 16.2656 27.2002 15.9952C27.1833 15.968 27.1674 15.9395 27.1348 15.8831C27.1023 15.8268 27.0858 15.7982 27.0706 15.77C26.92 15.4887 26.8385 15.1752 26.8336 14.8561C26.8331 14.824 26.8332 14.7912 26.8343 14.726L26.8415 14.3008C26.8529 13.6203 26.8587 13.2789 26.763 12.9726C26.6781 12.7005 26.536 12.4499 26.3462 12.2373C26.1317 11.9969 25.8347 11.8253 25.2402 11.4828L24.7464 11.1982C24.1536 10.8566 23.8571 10.6857 23.5423 10.6206C23.2639 10.5629 22.9765 10.5656 22.6991 10.6279C22.3859 10.6982 22.0931 10.8735 21.5079 11.224L21.5045 11.2255L21.1507 11.4374C21.0948 11.4709 21.0665 11.4878 21.0384 11.5034C20.7601 11.6581 20.4495 11.7437 20.1312 11.7539C20.0992 11.7549 20.0665 11.7549 20.0013 11.7549C19.9365 11.7549 19.9024 11.7549 19.8704 11.7539C19.5515 11.7436 19.2402 11.6576 18.9615 11.5022C18.9334 11.4866 18.9056 11.4696 18.8496 11.4359L18.4935 11.2221C17.9042 10.8684 17.6091 10.6912 17.2943 10.6206C17.0157 10.5581 16.7274 10.5563 16.4479 10.6147C16.1324 10.6806 15.8358 10.8528 15.2426 11.197L15.2399 11.1982L14.7523 11.4812L14.7469 11.4845C14.159 11.8257 13.8644 11.9967 13.6517 12.2361C13.4629 12.4486 13.3218 12.6988 13.2374 12.9702C13.1419 13.2769 13.147 13.619 13.1585 14.3027L13.1657 14.7274C13.1668 14.7917 13.1686 14.8236 13.1682 14.8552C13.1634 15.175 13.0809 15.4891 12.9297 15.771C12.9148 15.7988 12.8987 15.8267 12.8665 15.8824C12.8344 15.9381 12.8188 15.9658 12.8021 15.9927C12.6334 16.2645 12.4021 16.4919 12.1273 16.6557C12.1001 16.6719 12.0715 16.6875 12.0152 16.7187L11.6536 16.9191C11.0521 17.2524 10.7514 17.4193 10.5326 17.6567C10.339 17.8667 10.1928 18.1158 10.1035 18.3872C10.0026 18.6939 10.0027 19.0378 10.0042 19.7255L10.0055 20.2877C10.0071 20.9708 10.0092 21.3122 10.1103 21.6168C10.1998 21.8863 10.3449 22.134 10.5374 22.3427C10.755 22.5787 11.0527 22.7445 11.6497 23.0766L12.0081 23.276C12.0691 23.3099 12.0998 23.3266 12.1292 23.3444C12.4015 23.5083 12.6309 23.735 12.7982 24.0053C12.8163 24.0345 12.8336 24.0648 12.8683 24.1255C12.9026 24.1853 12.9201 24.2152 12.9359 24.2452C13.0826 24.5229 13.1611 24.8315 13.1665 25.1455C13.1671 25.1794 13.1666 25.2137 13.1654 25.2827L13.1585 25.6902C13.147 26.3763 13.1419 26.7197 13.2379 27.0273C13.3229 27.2994 13.4648 27.55 13.6546 27.7627C13.8692 28.0031 14.1666 28.1745 14.7611 28.5171L15.2548 28.8015C15.8476 29.1432 16.1439 29.3138 16.4587 29.379C16.7371 29.4366 17.0246 29.4344 17.3021 29.3721C17.6157 29.3017 17.9095 29.1258 18.4964 28.7743L18.8502 28.5625C18.9062 28.5289 18.9346 28.5121 18.9626 28.4965C19.2409 28.3418 19.5512 28.2558 19.8695 28.2456C19.9015 28.2446 19.9342 28.2446 19.9994 28.2446C20.0648 28.2446 20.0974 28.2446 20.1295 28.2456C20.4484 28.2559 20.7607 28.3422 21.0394 28.4975C21.0639 28.5112 21.0885 28.526 21.1316 28.5519L21.5078 28.7777C22.0971 29.1315 22.3916 29.3081 22.7065 29.3788C22.985 29.4413 23.2736 29.4438 23.5531 29.3855C23.8685 29.3196 24.1657 29.1471 24.7586 28.803L25.2536 28.5157C25.8418 28.1743 26.1367 28.0031 26.3495 27.7636C26.5383 27.5512 26.6796 27.3011 26.764 27.0297C26.8588 26.7252 26.8531 26.3858 26.8417 25.7119L26.8343 25.2724C26.8332 25.2081 26.8331 25.1761 26.8336 25.1445C26.8383 24.8247 26.9195 24.5104 27.0706 24.2286C27.0856 24.2007 27.1018 24.1726 27.1338 24.1171C27.166 24.0615 27.1827 24.0337 27.1994 24.0068C27.3681 23.7349 27.5995 23.5074 27.8744 23.3435C27.9012 23.3275 27.9289 23.3122 27.9838 23.2818L27.9857 23.2809L28.3472 23.0805C28.9488 22.7472 29.2501 22.5801 29.4689 22.3427C29.6625 22.1327 29.8085 21.8839 29.8978 21.6126C29.9981 21.3077 29.9973 20.9658 29.9958 20.2861L29.9945 19.7119C29.9929 19.0287 29.9921 18.6874 29.891 18.3828C29.8015 18.1133 29.6555 17.8656 29.463 17.6568C29.2457 17.4211 28.9475 17.2553 28.3517 16.9238L28.3499 16.9229Z" stroke="#2D2522" stroke-width="1.5" stroke-linecap="round" stroke-linejoin="round"/>
<path d="M16.0003 20C16.0003 22.2091 17.7912 24 20.0003 24C22.2095 24 24.0003 22.2091 24.0003 20C24.0003 17.7908 22.2095 16 20.0003 16C17.7912 16 16.0003 17.7908 16.0003 20Z" stroke="#2D2522" stroke-width="1.5" stroke-linecap="round" stroke-linejoin="round"/>
</svg>
