<svg width="40" height="40" viewBox="0 0 40 40" fill="none" xmlns="http://www.w3.org/2000/svg">
<path d="M16 21.5L22 24.5M22 15.5L16 18.5M25 29C23.3431 29 22 27.6569 22 26C22 24.3431 23.3431 23 25 23C26.6569 23 28 24.3431 28 26C28 27.6569 26.6569 29 25 29ZM13 23C11.3431 23 10 21.6569 10 20C10 18.3431 11.3431 17 13 17C14.6569 17 16 18.3431 16 20C16 21.6569 14.6569 23 13 23ZM25 17C23.3431 17 22 15.6569 22 14C22 12.3431 23.3431 11 25 11C26.6569 11 28 12.3431 28 14C28 15.6569 26.6569 17 25 17Z" stroke="#2D2522" stroke-width="1.5" stroke-linecap="round" stroke-linejoin="round"/>
</svg>
