<svg width="42" height="42" viewBox="0 0 42 42" fill="none" xmlns="http://www.w3.org/2000/svg">
<path d="M0.75 20.75C0.75 9.70431 9.70431 0.75 20.75 0.75C31.7957 0.75 40.75 9.70431 40.75 20.75C40.75 31.7957 31.7957 40.75 20.75 40.75C9.70431 40.75 0.75 31.7957 0.75 20.75Z" fill="#F6CBBA"/>
<path d="M0.75 20.75C0.75 9.70431 9.70431 0.75 20.75 0.75C31.7957 0.75 40.75 9.70431 40.75 20.75C40.75 31.7957 31.7957 40.75 20.75 40.75C9.70431 40.75 0.75 31.7957 0.75 20.75Z" stroke="white" stroke-width="1.5" stroke-linecap="round" stroke-linejoin="round"/>
<path d="M21.5601 29.5448C23.4029 28.6367 27.75 25.8317 27.75 19.5751V15.7952C27.75 14.7303 27.75 14.1971 27.5594 13.79C27.3917 13.4315 27.1233 13.1403 26.794 12.9576C26.4196 12.75 25.9303 12.75 24.9502 12.75H16.5502C15.5701 12.75 15.0797 12.75 14.7053 12.9576C14.376 13.1403 14.1085 13.4315 13.9407 13.79C13.75 14.1975 13.75 14.7314 13.75 15.7983V19.5751C13.75 25.8317 18.0968 28.6367 19.9397 29.5448C20.1351 29.6411 20.2332 29.6891 20.4544 29.7304C20.5938 29.7565 20.907 29.7565 21.0465 29.7304C21.2669 29.6893 21.364 29.6414 21.558 29.5458L21.5601 29.5448Z" fill="white" stroke="white" stroke-width="2" stroke-linecap="round" stroke-linejoin="round"/>
</svg>
