<svg width="40" height="40" viewBox="0 0 40 40" fill="none" xmlns="http://www.w3.org/2000/svg">
<path d="M22 18V25M18 18V25M14 14V25.8C14 26.9201 14 27.4798 14.218 27.9076C14.4097 28.2839 14.7155 28.5905 15.0918 28.7822C15.5192 29 16.079 29 17.1969 29H22.8031C23.921 29 24.48 29 24.9074 28.7822C25.2837 28.5905 25.5905 28.2839 25.7822 27.9076C26 27.4802 26 26.921 26 25.8031V14M14 14H16M14 14H12M16 14H24M16 14C16 13.0681 16 12.6024 16.1522 12.2349C16.3552 11.7448 16.7443 11.3552 17.2344 11.1522C17.6019 11 18.0681 11 19 11H21C21.9319 11 22.3978 11 22.7654 11.1522C23.2554 11.3552 23.6447 11.7448 23.8477 12.2349C23.9999 12.6024 24 13.0681 24 14M24 14H26M26 14H28" stroke="#2D2522" stroke-width="1.5" stroke-linecap="round" stroke-linejoin="round"/>
</svg>
