<svg width="40" height="40" viewBox="0 0 40 40" fill="none" xmlns="http://www.w3.org/2000/svg">
<path d="M25 29C25 26.2386 22.7614 24 20 24C17.2386 24 15 26.2386 15 29M25 29H25.8031C26.921 29 27.48 29 27.9074 28.7822C28.2837 28.5905 28.5905 28.2837 28.7822 27.9074C29 27.48 29 26.921 29 25.8031V14.1969C29 13.079 29 12.5192 28.7822 12.0918C28.5905 11.7155 28.2837 11.4097 27.9074 11.218C27.4796 11 26.9203 11 25.8002 11H14.2002C13.0801 11 12.5196 11 12.0918 11.218C11.7155 11.4097 11.4097 11.7155 11.218 12.0918C11 12.5196 11 13.0801 11 14.2002V25.8002C11 26.9203 11 27.4796 11.218 27.9074C11.4097 28.2837 11.7155 28.5905 12.0918 28.7822C12.5192 29 13.079 29 14.1969 29H15M25 29H15M20 21C18.3431 21 17 19.6569 17 18C17 16.3431 18.3431 15 20 15C21.6569 15 23 16.3431 23 18C23 19.6569 21.6569 21 20 21Z" stroke="#2D2522" stroke-width="1.5" stroke-linecap="round" stroke-linejoin="round"/>
</svg>
