<svg width="40" height="40" viewBox="0 0 40 40" fill="none" xmlns="http://www.w3.org/2000/svg">
<path d="M25 28C25 26.3431 22.7614 25 20 25C17.2386 25 15 26.3431 15 28M29 25.0004C29 23.7702 27.7659 22.7129 26 22.25M11 25.0004C11 23.7702 12.2341 22.7129 14 22.25M26 18.2361C26.6137 17.6868 27 16.8885 27 16C27 14.3431 25.6569 13 24 13C23.2316 13 22.5308 13.2889 22 13.7639M14 18.2361C13.3863 17.6868 13 16.8885 13 16C13 14.3431 14.3431 13 16 13C16.7684 13 17.4692 13.2889 18 13.7639M20 22C18.3431 22 17 20.6569 17 19C17 17.3431 18.3431 16 20 16C21.6569 16 23 17.3431 23 19C23 20.6569 21.6569 22 20 22Z" stroke="#2D2522" stroke-width="1.5" stroke-linecap="round" stroke-linejoin="round"/>
</svg>
