<svg width="40" height="40" viewBox="0 0 40 40" fill="none" xmlns="http://www.w3.org/2000/svg">
<path d="M25.2166 27.3323C23.9349 25.9008 22.0727 25 20 25C17.9273 25 16.0649 25.9008 14.7832 27.3323M20 29C15.0294 29 11 24.9706 11 20C11 15.0294 15.0294 11 20 11C24.9706 11 29 15.0294 29 20C29 24.9706 24.9706 29 20 29ZM20 22C18.3431 22 17 20.6569 17 19C17 17.3431 18.3431 16 20 16C21.6569 16 23 17.3431 23 19C23 20.6569 21.6569 22 20 22Z" stroke="#2D2522" stroke-width="1.5" stroke-linecap="round" stroke-linejoin="round"/>
</svg>
