<svg width="40" height="40" viewBox="0 0 40 40" fill="none" xmlns="http://www.w3.org/2000/svg">
<path d="M14 26C14.0637 26 14.1293 26 14.1969 26H20M14 26C13.0117 25.9992 12.4933 25.9868 12.0918 25.7822C11.7155 25.5905 11.4097 25.2837 11.218 24.9074C11 24.4796 11 23.9203 11 22.8002V17.2002C11 16.0801 11 15.5196 11.218 15.0918C11.4097 14.7155 11.7155 14.4097 12.0918 14.218C12.5196 14 13.0801 14 14.2002 14H25.8002C26.9203 14 27.4796 14 27.9074 14.218C28.2837 14.4097 28.5905 14.7155 28.7822 15.0918C29 15.5192 29 16.079 29 17.1969V22.8031C29 23.921 29 24.48 28.7822 24.9074C28.5905 25.2837 28.2837 25.5905 27.9074 25.7822C27.48 26 26.921 26 25.8031 26H20M14 26C14 24.8954 15.3432 24 17 24C18.6569 24 20 24.8954 20 26M14 26C14 26 14 25.9999 14 26ZM26 22H22M26 19H23M17 21C15.8954 21 15 20.1046 15 19C15 17.8954 15.8954 17 17 17C18.1046 17 19 17.8954 19 19C19 20.1046 18.1046 21 17 21Z" stroke="#2D2522" stroke-width="1.5" stroke-linecap="round" stroke-linejoin="round"/>
</svg>
