<svg width="40" height="40" viewBox="0 0 40 40" fill="none" xmlns="http://www.w3.org/2000/svg">
<path d="M21.9542 16.0118C21.4838 15.9258 20.9975 15.8807 20.5 15.8807C20.0025 15.8807 19.5162 15.9258 19.0458 16.0118M21.9542 16.0118C25.4004 16.6415 28 19.4664 28 22.856C28 26.7084 24.6421 29.8313 20.5 29.8313C16.3579 29.8313 13 26.7084 13 22.856C13 19.4664 15.5996 16.6415 19.0458 16.0118M21.9542 16.0118C20.0792 11.5211 25.0224 8.62585 27.3182 12.9854M19.0458 16.0118C20.0792 13.2646 17.011 11.0176 13.6818 13.6334M18.2042 24.5994C18.1722 25.1807 18.5866 26.3433 20.5 26.3433C22.4134 26.3433 22.8917 25.1807 22.8917 24.5994M18.2042 20.2399V21.1118M22.8917 21.1118V20.2399" stroke="#2D2522" stroke-width="1.5" stroke-linecap="round" stroke-linejoin="round"/>
</svg>
