<svg width="40" height="40" viewBox="0 0 40 40" fill="none" xmlns="http://www.w3.org/2000/svg">
<path d="M16.3428 22.5898C16.8086 22.0902 17.3719 21.6914 17.9978 21.418C18.6237 21.1445 19.2995 21.0024 19.9826 21C20.6656 20.9976 21.3419 21.1353 21.9697 21.4044C22.5975 21.6734 23.1637 22.0682 23.633 22.5645M14.1494 19.5439C14.8931 18.7464 15.792 18.1093 16.7909 17.6719C17.7898 17.2344 18.8678 17.0058 19.9583 17M11.2236 16.8165C12.3418 15.6174 13.6938 14.6602 15.1962 14.0039C16.6986 13.3476 18.3198 13.0056 19.9593 13M24 17L26 15M26 15L28 13M26 15L24 13M26 15L28 17M20 27C19.4477 27 19 26.5523 19 26C19 25.4477 19.4477 25 20 25C20.5523 25 21 25.4477 21 26C21 26.5523 20.5523 27 20 27Z" stroke="#2D2522" stroke-width="1.5" stroke-linecap="round" stroke-linejoin="round"/>
</svg>
