<svg width="40" height="40" viewBox="0 0 40 40" fill="none" xmlns="http://www.w3.org/2000/svg">
<path d="M16.3428 22.5899C16.8086 22.0903 17.3719 21.6915 17.9978 21.418C18.6237 21.1446 19.2995 21.0025 19.9826 21.0001C20.6656 20.9977 21.3419 21.1353 21.9697 21.4044C22.5975 21.6735 23.1637 22.0683 23.633 22.5646M14.1494 19.5439C14.8948 18.7446 15.796 18.1066 16.7975 17.669C17.7989 17.2315 18.8793 17.0039 19.9721 17.0001C21.065 16.9963 22.1466 17.2165 23.1511 17.647C24.1556 18.0776 25.0617 18.7094 25.8127 19.5035M11.2236 16.8164C12.3417 15.6174 13.6935 14.6603 15.1957 14.004C16.6979 13.3477 18.3179 13.0058 19.9572 13.0001C21.5966 12.9944 23.2208 13.3247 24.7276 13.9705C26.2344 14.6163 27.5931 15.5646 28.7195 16.7557M20 27.0001C19.4477 27.0001 19 26.5524 19 26.0001C19 25.4478 19.4477 25.0001 20 25.0001C20.5523 25.0001 21 25.4478 21 26.0001C21 26.5524 20.5523 27.0001 20 27.0001Z" stroke="#2D2522" stroke-width="1.5" stroke-linecap="round" stroke-linejoin="round"/>
</svg>
