<svg width="30" height="30" viewBox="0 0 30 30" fill="none" xmlns="http://www.w3.org/2000/svg">
<path d="M13.3822 18.1111H9.33762V22M16.6179 11.8889H20.6625V8M9.00031 12.6693C9.45386 11.59 10.2132 10.6546 11.1921 9.96951C12.171 9.28443 13.3312 8.87696 14.5388 8.79373C15.7464 8.7105 16.9534 8.95465 18.0239 9.49848C19.0944 10.0423 19.984 10.8642 20.5931 11.8703M21.0003 17.3311C20.5468 18.4104 19.7874 19.3458 18.8085 20.0309C17.8296 20.7159 16.6706 21.1229 15.463 21.2061C14.2554 21.2894 13.0474 21.0452 11.9769 20.5014C10.9064 19.9576 10.0162 19.1358 9.40714 18.1297" stroke="#2D2522" stroke-width="1.5" stroke-linecap="round" stroke-linejoin="round"/>
</svg>
