<svg width="30" height="30" viewBox="0 0 30 30" fill="none" xmlns="http://www.w3.org/2000/svg">
<path d="M12.8235 18.8889V19.6667C12.8235 20.9554 13.8506 22 15.1176 22C16.3847 22 17.4118 20.9554 17.4118 19.6667V18.8889M12.8235 18.8889L17.4118 18.8889M12.8235 18.8889L9.76487 18.889C9.37271 18.889 9.04932 18.5888 9.00514 18.2019L9 18.111V17.6554C9 17.4491 9.08063 17.2516 9.22403 17.1057L9.6146 16.7083C9.71071 16.6105 9.76471 16.478 9.76471 16.3398V13.4443C9.76471 12.0119 10.3086 10.7087 11.1977 9.73671M17.4118 18.8889L20.4705 18.8889M9.76471 8L22 20.4444M20.4702 15.777L20.4709 13.4444C20.4709 10.4376 18.0744 8 15.118 8L14.9339 8.00316C14.3184 8.02431 13.7293 8.15092 13.1835 8.36619" stroke="#2D2522" stroke-width="1.5" stroke-linecap="round" stroke-linejoin="round"/>
</svg>
