<svg width="30" height="30" viewBox="0 0 30 30" fill="none" xmlns="http://www.w3.org/2000/svg">
<path d="M9 11.4001V18.6001C9 19.4402 9 19.86 9.16349 20.1809C9.3073 20.4632 9.5366 20.6929 9.81885 20.8367C10.1394 21 10.5592 21 11.3977 21H18.6023C19.4408 21 19.86 21 20.1805 20.8367C20.4628 20.6929 20.6929 20.4632 20.8367 20.1809C21 19.8604 21 19.4411 21 18.6027V11.3977C21 10.5592 21 10.1394 20.8367 9.81885C20.6929 9.5366 20.4628 9.3073 20.1805 9.16349C19.8597 9 19.4402 9 18.6001 9H11.4001C10.5601 9 10.1397 9 9.81885 9.16349C9.5366 9.3073 9.3073 9.5366 9.16349 9.81885C9 10.1397 9 10.5601 9 11.4001Z" stroke="#2D2522" stroke-width="1.5" stroke-linecap="round" stroke-linejoin="round"/>
</svg>
