<svg width="30" height="30" viewBox="0 0 30 30" fill="none" xmlns="http://www.w3.org/2000/svg">
<path d="M12 15L14.25 17.25L18 12.75M9 18.6001V11.4001C9 10.5601 9 10.1397 9.16349 9.81885C9.3073 9.5366 9.5366 9.3073 9.81885 9.16349C10.1397 9 10.5601 9 11.4001 9H18.6001C19.4402 9 19.8597 9 20.1805 9.16349C20.4628 9.3073 20.6929 9.5366 20.8367 9.81885C21 10.1394 21 10.5592 21 11.3977V18.6027C21 19.4411 21 19.8604 20.8367 20.1809C20.6929 20.4632 20.4628 20.6929 20.1805 20.8367C19.86 21 19.4408 21 18.6023 21H11.3977C10.5592 21 10.1394 21 9.81885 20.8367C9.5366 20.6929 9.3073 20.4632 9.16349 20.1809C9 19.86 9 19.4402 9 18.6001Z" stroke="#2D2522" stroke-width="1.5" stroke-linecap="round" stroke-linejoin="round"/>
</svg>
