<svg width="30" height="30" viewBox="0 0 30 30" fill="none" xmlns="http://www.w3.org/2000/svg">
<path d="M8 21.9998H14.1718M14.1718 21.9998H14.2726M14.1718 21.9998C14.1886 21.9999 14.2054 22 14.2222 22C14.239 22 14.2559 21.9999 14.2726 21.9998M14.1718 21.9998C10.7586 21.9729 8 19.2176 8 15.8232V12.226C8 11.7762 8.36716 11.4117 8.82031 11.4117H19.6237C20.0769 11.4117 20.4444 11.7762 20.4444 12.226V12.294M14.2726 21.9998H20.4444M14.2726 21.9998C17.6859 21.9729 20.4444 19.2176 20.4444 15.8232M20.4444 12.294H21.7778C23.0051 12.294 24 13.2816 24 14.4999C24 15.7182 23.0051 16.7058 21.7778 16.7058H20.4444V15.8232M20.4444 12.294V15.8232M17.7778 7L16.8889 8.76468M15.1111 7L14.2222 8.76468M12.4444 7L11.5556 8.76468" stroke="#2D2522" stroke-width="1.5" stroke-linecap="round" stroke-linejoin="round"/>
</svg>
