<svg width="32" height="32" viewBox="0 0 32 32" fill="none" xmlns="http://www.w3.org/2000/svg">
<path d="M0.75 15.75C0.75 7.46573 7.46573 0.75 15.75 0.75C24.0343 0.75 30.75 7.46573 30.75 15.75C30.75 24.0343 24.0343 30.75 15.75 30.75C7.46573 30.75 0.75 24.0343 0.75 15.75Z" fill="#F6CBBA"/>
<path d="M0.75 15.75C0.75 7.46573 7.46573 0.75 15.75 0.75C24.0343 0.75 30.75 7.46573 30.75 15.75C30.75 24.0343 24.0343 30.75 15.75 30.75C7.46573 30.75 0.75 24.0343 0.75 15.75Z" stroke="white" stroke-width="1.5" stroke-linecap="round" stroke-linejoin="round"/>
<path d="M10.25 15.75H15.75M15.75 15.75H21.25M15.75 15.75V21.25M15.75 15.75V10.25" stroke="white" stroke-width="4" stroke-linejoin="round"/>
</svg>
