<svg width="30" height="30" viewBox="0 0 30 30" fill="none" xmlns="http://www.w3.org/2000/svg">
<path d="M8.00004 19.6667C8 19.6165 8 19.5647 8 19.5113V10.489C8 9.61785 8 9.18193 8.16955 8.84918C8.31868 8.55648 8.55648 8.31868 8.84918 8.16955C9.18193 8 9.61785 8 10.489 8H19.5113C20.3825 8 20.8178 8 21.1506 8.16955C21.4433 8.31868 21.6815 8.55648 21.8306 8.84918C22 9.1816 22 9.617 22 10.4865V19.5135C22 19.8907 22 20.1861 21.9862 20.4269M8.00004 19.6667C8.00064 20.4354 8.0104 20.8379 8.16955 21.1502C8.31868 21.4429 8.55648 21.6815 8.84918 21.8306C9.1816 22 9.617 22 10.4865 22H19.5139C20.3834 22 20.8182 22 21.1506 21.8306C21.4433 21.6815 21.6815 21.4429 21.8306 21.1502C21.9265 20.962 21.9681 20.741 21.9862 20.4269M8.00004 19.6667L11.7084 15.3403L11.7095 15.3391C12.0384 14.9554 12.2032 14.7632 12.3985 14.6939C12.5702 14.6331 12.7576 14.6345 12.9283 14.6977C13.1229 14.7698 13.285 14.9641 13.6093 15.3532L15.6868 17.8463C15.987 18.2064 16.1379 18.3876 16.3212 18.4602C16.4828 18.5244 16.6611 18.5316 16.8279 18.4824C17.0177 18.4263 17.1848 18.2592 17.519 17.925L17.9057 17.5384C18.2459 17.1981 18.4161 17.0281 18.6086 16.9725C18.7778 16.9237 18.9586 16.9342 19.1213 17.0014C19.3066 17.0779 19.4568 17.2652 19.7574 17.641L21.9862 20.4269M21.9862 20.4269L22 20.4441M17.3333 12.6667C16.9038 12.6667 16.5556 12.3184 16.5556 11.8889C16.5556 11.4593 16.9038 11.1111 17.3333 11.1111C17.7629 11.1111 18.1111 11.4593 18.1111 11.8889C18.1111 12.3184 17.7629 12.6667 17.3333 12.6667Z" stroke="#2D2522" stroke-width="1.5" stroke-linecap="round" stroke-linejoin="round"/>
</svg>
