<svg width="30" height="30" viewBox="0 0 30 30" fill="none" xmlns="http://www.w3.org/2000/svg">
<path d="M21.1254 13.2928L19.2754 10.9595C18.9958 10.6068 18.8553 10.4303 18.6839 10.3035C18.532 10.1912 18.3624 10.1079 18.183 10.0572C17.9807 10 17.7629 10 17.3261 10H11.5373C10.6492 10 10.2048 10 9.86564 10.1817C9.56727 10.3414 9.32486 10.5962 9.17283 10.9098C9 11.2664 9 11.7334 9 12.6668V17.3335C9 18.2669 9 18.7334 9.17283 19.0899C9.32486 19.4035 9.56727 19.6587 9.86564 19.8185C10.2045 20 10.6483 20 11.5347 20H17.3261C17.7629 20 17.9807 19.9999 18.183 19.9426C18.3624 19.8919 18.532 19.8085 18.6839 19.6962C18.8553 19.5694 18.9958 19.3934 19.2754 19.0407L21.1254 16.7074C21.6069 16.1 21.8472 15.7963 21.9392 15.4574C22.0203 15.1585 22.0203 14.8413 21.9392 14.5424C21.8472 14.2035 21.6069 13.9001 21.1254 13.2928Z" stroke="#2D2522" stroke-width="1.5" stroke-linecap="round" stroke-linejoin="round"/>
</svg>
