<svg width="30" height="30" viewBox="0 0 30 30" fill="none" xmlns="http://www.w3.org/2000/svg">
<path d="M10 16.3333C10 16.7015 10.3198 17 10.7143 17C11.1088 17 11.4286 16.7015 11.4286 16.3333C11.4286 15.9651 11.1088 15.6667 10.7143 15.6667C10.3198 15.6667 10 15.9651 10 16.3333Z" stroke="#2D2522" stroke-width="1.5" stroke-linecap="round" stroke-linejoin="round"/>
<path d="M14.2857 15C14.2857 15.3682 14.6055 15.6667 15 15.6667C15.3945 15.6667 15.7143 15.3682 15.7143 15C15.7143 14.6318 15.3945 14.3333 15 14.3333C14.6055 14.3333 14.2857 14.6318 14.2857 15Z" stroke="#2D2522" stroke-width="1.5" stroke-linecap="round" stroke-linejoin="round"/>
<path d="M18.5714 13.6667C18.5714 14.0349 18.8912 14.3333 19.2857 14.3333C19.6802 14.3333 20 14.0349 20 13.6667C20 13.2985 19.6802 13 19.2857 13C18.8912 13 18.5714 13.2985 18.5714 13.6667Z" stroke="#2D2522" stroke-width="1.5" stroke-linecap="round" stroke-linejoin="round"/>
</svg>
