<svg width="30" height="30" viewBox="0 0 30 30" fill="none" xmlns="http://www.w3.org/2000/svg">
<path d="M14.3742 7.12455C14.0735 7.24911 13.8039 7.51868 13.2648 8.05777C12.7258 8.59675 12.4561 8.86643 12.3316 9.16709C12.1655 9.56803 12.1655 10.0186 12.3316 10.4195C12.4561 10.7202 12.7257 10.9898 13.2648 11.5289C13.8036 12.0677 14.0735 12.3376 14.3742 12.4621C14.7751 12.6282 15.2256 12.6282 15.6266 12.4621C15.9273 12.3375 16.1969 12.068 16.736 11.5289C17.2751 10.9898 17.5439 10.7202 17.6684 10.4195C17.8345 10.0186 17.8345 9.56803 17.6684 9.16709C17.5439 8.86639 17.2751 8.59688 16.736 8.05777C16.1969 7.51867 15.9273 7.24911 15.6266 7.12455C15.2256 6.95848 14.7751 6.95848 14.3742 7.12455Z" stroke="#2D2522" stroke-width="1.5" stroke-linecap="round" stroke-linejoin="round"/>
<path d="M9.16717 12.331C8.86646 12.4556 8.59689 12.7251 8.05778 13.2643C7.51881 13.8032 7.2491 14.0729 7.12456 14.3736C6.95848 14.7745 6.95848 15.225 7.12456 15.626C7.24912 15.9267 7.51868 16.1962 8.0578 16.7353C8.59661 17.2741 8.86652 17.544 9.16715 17.6686C9.56809 17.8346 10.0186 17.8346 10.4196 17.6686C10.7203 17.544 10.9899 17.2745 11.529 16.7353C12.0681 16.1962 12.3369 15.9267 12.4614 15.626C12.6275 15.225 12.6275 14.7745 12.4614 14.3736C12.3369 14.0729 12.0681 13.8034 11.529 13.2643C10.9899 12.7251 10.7203 12.4556 10.4196 12.331C10.0186 12.165 9.56812 12.165 9.16717 12.331Z" stroke="#2D2522" stroke-width="1.5" stroke-linecap="round" stroke-linejoin="round"/>
<path d="M18.4718 13.2643C17.9328 13.8032 17.6631 14.0729 17.5386 14.3736C17.3725 14.7745 17.3725 15.225 17.5386 15.626C17.6631 15.9267 17.9327 16.1962 18.4718 16.7353C19.0106 17.2741 19.2805 17.544 19.5812 17.6686C19.9821 17.8346 20.4327 17.8346 20.8336 17.6686C21.1343 17.544 21.4039 17.2745 21.943 16.7353C22.4821 16.1962 22.7509 15.9267 22.8754 15.626C23.0415 15.225 23.0415 14.7745 22.8754 14.3736C22.7509 14.0729 22.4821 13.8034 21.943 13.2643C21.4039 12.7251 21.1343 12.4556 20.8336 12.331C20.4327 12.165 19.9821 12.165 19.5812 12.331C19.2805 12.4556 19.0109 12.7252 18.4718 13.2643Z" stroke="#2D2522" stroke-width="1.5" stroke-linecap="round" stroke-linejoin="round"/>
<path d="M14.3742 17.5379C14.0735 17.6625 13.8039 17.932 13.2648 18.4711C12.7258 19.0101 12.4561 19.2798 12.3316 19.5804C12.1655 19.9814 12.1655 20.4319 12.3316 20.8329C12.4561 21.1336 12.7257 21.4031 13.2648 21.9422C13.8036 22.481 14.0735 22.7509 14.3742 22.8754C14.7751 23.0415 15.2256 23.0415 15.6266 22.8754C15.9273 22.7509 16.1969 22.4813 16.736 21.9422C17.2751 21.4031 17.5439 21.1336 17.6684 20.8329C17.8345 20.4319 17.8345 19.9814 17.6684 19.5804C17.5439 19.2797 17.2751 19.0102 16.736 18.4711C16.1969 17.932 15.9273 17.6625 15.6266 17.5379C15.2256 17.3718 14.7751 17.3718 14.3742 17.5379Z" stroke="#2D2522" stroke-width="1.5" stroke-linecap="round" stroke-linejoin="round"/>
</svg>
