<svg width="30" height="30" viewBox="0 0 30 30" fill="none" xmlns="http://www.w3.org/2000/svg">
<path d="M11.6667 16.1667L16.3333 18.5M16.3333 11.5L11.6667 13.8333M18.6667 22C17.378 22 16.3333 20.9553 16.3333 19.6667C16.3333 18.378 17.378 17.3333 18.6667 17.3333C19.9553 17.3333 21 18.378 21 19.6667C21 20.9553 19.9553 22 18.6667 22ZM9.33333 17.3333C8.04467 17.3333 7 16.2887 7 15C7 13.7113 8.04467 12.6667 9.33333 12.6667C10.622 12.6667 11.6667 13.7113 11.6667 15C11.6667 16.2887 10.622 17.3333 9.33333 17.3333ZM18.6667 12.6667C17.378 12.6667 16.3333 11.622 16.3333 10.3333C16.3333 9.04467 17.378 8 18.6667 8C19.9553 8 21 9.04467 21 10.3333C21 11.622 19.9553 12.6667 18.6667 12.6667Z" stroke="#2D2522" stroke-width="1.5" stroke-linecap="round" stroke-linejoin="round"/>
</svg>
