<svg width="30" height="30" viewBox="0 0 30 30" fill="none" xmlns="http://www.w3.org/2000/svg">
<path d="M10.3333 20C10.3828 20 10.4339 20 10.4865 20H15M10.3333 20C9.56468 19.9993 9.16149 19.989 8.84918 19.8185C8.55648 19.6587 8.31868 19.4031 8.16955 19.0895C8 18.733 8 18.2669 8 17.3335V12.6668C8 11.7334 8 11.2664 8.16955 10.9098C8.31868 10.5962 8.55648 10.3414 8.84918 10.1817C9.18193 10 9.61785 10 10.489 10H19.5113C20.3825 10 20.8174 10 21.1502 10.1817C21.4429 10.3414 21.6815 10.5962 21.8306 10.9098C22 11.266 22 11.7325 22 12.6641V17.3359C22 18.2675 22 18.7333 21.8306 19.0895C21.6815 19.4031 21.4429 19.6587 21.1502 19.8185C20.8178 20 20.383 20 19.5135 20H15M10.3333 20C10.3334 19.0795 11.378 18.3333 12.6667 18.3333C13.9553 18.3333 15 19.0795 15 20M10.3333 20C10.3333 20 10.3333 19.9999 10.3333 20ZM19.6667 16.6667H16.5556M19.6667 14.1667H17.3333M12.6667 15.8333C11.8076 15.8333 11.1111 15.0871 11.1111 14.1667C11.1111 13.2462 11.8076 12.5 12.6667 12.5C13.5258 12.5 14.2222 13.2462 14.2222 14.1667C14.2222 15.0871 13.5258 15.8333 12.6667 15.8333Z" stroke="#2D2522" stroke-width="1.5" stroke-linecap="round" stroke-linejoin="round"/>
</svg>
