<svg width="30" height="30" viewBox="0 0 30 30" fill="none" xmlns="http://www.w3.org/2000/svg">
<path d="M16.5664 12.3354C16.2214 12.2691 15.8649 12.2343 15.5 12.2343C15.1351 12.2343 14.7786 12.2691 14.4336 12.3354M16.5664 12.3354C19.0936 12.8214 21 15.0014 21 17.6172C21 20.5901 18.5376 23.0001 15.5 23.0001C12.4624 23.0001 10 20.5901 10 17.6172C10 15.0014 11.9064 12.8214 14.4336 12.3354M16.5664 12.3354C15.1914 8.86997 18.8164 6.63569 20.5 10M14.4336 12.3354C15.1914 10.2154 12.9414 8.48142 10.5 10.5001M13.8164 18.9626C13.793 19.4112 14.0969 20.3083 15.5 20.3083C16.9031 20.3083 17.2539 19.4112 17.2539 18.9626M13.8164 15.5983V16.2712M17.2539 16.2712V15.5983" stroke="#2D2522" stroke-width="1.5" stroke-linecap="round" stroke-linejoin="round"/>
</svg>
