<svg width="30" height="30" viewBox="0 0 30 30" fill="none" xmlns="http://www.w3.org/2000/svg">
<path d="M11.6889 17.2198C12.1054 16.7916 12.6091 16.4498 13.1687 16.2154C13.7284 15.981 14.3326 15.8592 14.9433 15.8571C15.5541 15.8551 16.1587 15.9731 16.72 16.2037C17.2814 16.4344 17.7876 16.7728 18.2073 17.1982M9.72781 14.6091C10.3928 13.9255 11.1965 13.3794 12.0896 13.0045C12.9827 12.6295 13.9466 12.4335 14.9216 12.4286M7.11182 12.2713C8.11157 11.2435 9.3204 10.423 10.6637 9.86049C12.0071 9.29794 13.4566 9.00478 14.9225 9M18.5354 12.4285L20.3236 10.7143M20.3236 10.7143L22.1118 9M20.3236 10.7143L18.5354 9M20.3236 10.7143L22.1118 12.4285M14.9589 21C14.4651 21 14.0648 20.6162 14.0648 20.1429C14.0648 19.6695 14.4651 19.2857 14.9589 19.2857C15.4527 19.2857 15.853 19.6695 15.853 20.1429C15.853 20.6162 15.4527 21 14.9589 21Z" stroke="#2D2522" stroke-width="1.5" stroke-linecap="round" stroke-linejoin="round"/>
</svg>
