<svg width="30" height="30" viewBox="0 0 30 30" fill="none" xmlns="http://www.w3.org/2000/svg">
<path d="M11.8604 17.2198C12.2598 16.7917 12.7427 16.4498 13.2794 16.2154C13.816 15.981 14.3954 15.8592 14.981 15.8572C15.5666 15.8551 16.1464 15.9731 16.6846 16.2038C17.2229 16.4344 17.7083 16.7728 18.1107 17.1982M9.97997 14.6091C10.619 13.924 11.3916 13.377 12.2503 13.002C13.1089 12.627 14.0351 12.4319 14.9721 12.4286C15.909 12.4253 16.8363 12.6141 17.6975 12.9832C18.5587 13.3522 19.3356 13.8938 19.9794 14.5744M7.47156 12.2711C8.43009 11.2435 9.58906 10.4231 10.877 9.86055C12.1649 9.29801 13.5538 9.00497 14.9593 9.00006C16.3647 8.99516 17.7573 9.27833 19.0491 9.83187C20.341 10.3854 21.5059 11.1982 22.4716 12.2191M14.9959 21C14.5224 21 14.1386 20.6162 14.1386 20.1429C14.1386 19.6695 14.5224 19.2857 14.9959 19.2857C15.4694 19.2857 15.8533 19.6695 15.8533 20.1429C15.8533 20.6162 15.4694 21 14.9959 21Z" stroke="#2D2522" stroke-width="1.5" stroke-linecap="round" stroke-linejoin="round"/>
</svg>
